<svg width="82" height="23" viewBox="0 0 82 23" fill="none" xmlns="http://www.w3.org/2000/svg">
<path d="M4.13824 0.0664062H0.758789V22.9984H4.13824V0.0664062Z" fill="#AAAAAA"/>
<path d="M7.51705 0.0664062H5.58594V22.9984H7.51705V0.0664062Z" fill="#AAAAAA"/>
<path d="M12.3448 0.0664062H10.8965V22.9984H12.3448V0.0664062Z" fill="#AAAAAA"/>
<path d="M20.5528 0.0664062H19.1045V22.9984H20.5528V0.0664062Z" fill="#AAAAAA"/>
<path d="M28.7599 0.0664062H25.8633V22.9984H28.7599V0.0664062Z" fill="#AAAAAA"/>
<path d="M35.5192 0.0664062H30.6914V22.9984H35.5192V0.0664062Z" fill="#AAAAAA"/>
<path d="M40.3459 0.0664062H37.4492V22.9984H40.3459V0.0664062Z" fill="#AAAAAA"/>
<path d="M49.0361 0.0664062H43.7256V22.9984H49.0361V0.0664062Z" fill="#AAAAAA"/>
<path d="M53.8637 0.0664062H51.9326V22.9984H53.8637V0.0664062Z" fill="#AAAAAA"/>
<path d="M57.2436 0.0664062H55.3125V22.9984H57.2436V0.0664062Z" fill="#AAAAAA"/>
<path d="M64.0029 0.0664062H58.6924V22.9984H64.0029V0.0664062Z" fill="#AAAAAA"/>
<path d="M72.2101 0.0664062H65.4512V22.9984H72.2101V0.0664062Z" fill="#AAAAAA"/>
<path d="M77.0367 0.0664062H73.6572V22.9984H77.0367V0.0664062Z" fill="#AAAAAA"/>
<path d="M81.8653 0.0664062H80.417V22.9984H81.8653V0.0664062Z" fill="#AAAAAA"/>
</svg>
