<svg width="42" height="48" viewBox="0 0 42 48" fill="none" xmlns="http://www.w3.org/2000/svg">
<path d="M21 48C24.3112 48 26.9972 45.3141 26.9972 42H15.0028C15.0028 45.3141 17.6888 48 21 48ZM41.1928 33.9647C39.3815 32.0184 35.9925 29.0906 35.9925 19.5C35.9925 12.2156 30.885 6.38438 23.9981 4.95375V3C23.9981 1.34344 22.6556 0 21 0C19.3444 0 18.0019 1.34344 18.0019 3V4.95375C11.115 6.38438 6.00755 12.2156 6.00755 19.5C6.00755 29.0906 2.61849 32.0184 0.80725 33.9647C0.244752 34.5694 -0.00462267 35.2922 6.48174e-05 36C0.0103773 37.5375 1.21694 39 3.00943 39H38.9906C40.7831 39 41.9906 37.5375 41.9999 36C42.0046 35.2922 41.7553 34.5684 41.1928 33.9647Z" fill="#FFEB80"/>
</svg>
