<svg width="65" height="38" viewBox="0 0 65 38" fill="none" xmlns="http://www.w3.org/2000/svg">
<rect x="0.887695" y="0.191406" width="63.3487" height="36.8445" fill="#38DB87"/>
<path d="M12.8333 3.46094H3.68164V34.0656H12.8333" stroke="#005D4D" stroke-width="2.25821"/>
<path d="M52.1139 34.1211L61.2656 34.1211L61.2656 3.5164L52.1139 3.5164" stroke="#005D4D" stroke-width="2.25821"/>
<circle cx="12.834" cy="18.6709" r="2.43649" fill="#005D4D"/>
<circle cx="32.6226" cy="18.6158" r="11.8853" fill="#005D4D"/>
<circle cx="52.0547" cy="18.9131" r="2.43649" fill="#005D4D"/>
<path d="M34.1835 26.839L30.0894 11.5597L31.0683 11.2974L35.1623 26.5767L34.1835 26.839ZM34.6123 15.2607C34.3786 14.6751 33.9623 14.2834 33.3634 14.0856C32.7646 13.8879 32.0951 13.8881 31.355 14.0865C30.8139 14.2315 30.3638 14.4459 30.0049 14.7297C29.6499 15.0124 29.4001 15.3374 29.2554 15.7046C29.1146 16.0706 29.0965 16.4487 29.201 16.8386C29.2884 17.1649 29.4412 17.4246 29.6593 17.6178C29.8803 17.8059 30.1349 17.9445 30.4232 18.0336C30.7104 18.1187 31.0026 18.1747 31.2998 18.2017C31.596 18.2247 31.8655 18.2357 32.1083 18.2346L33.4393 18.2362C33.78 18.2344 34.165 18.2549 34.5944 18.2977C35.0278 18.3393 35.4576 18.4395 35.884 18.5982C36.3132 18.7519 36.698 18.9942 37.0383 19.3252C37.3786 19.6562 37.6255 20.1082 37.7791 20.6812C37.956 21.3417 37.9429 21.985 37.7396 22.6109C37.5403 23.2358 37.1525 23.7939 36.5762 24.2852C36.0039 24.7754 35.2482 25.1464 34.3092 25.398C33.4338 25.6325 32.6379 25.6944 31.9216 25.5835C31.2093 25.4716 30.6024 25.212 30.1009 24.8048C29.6034 24.3965 29.2412 23.8645 29.0144 23.2088L30.5423 22.7994C30.7058 23.2503 30.9633 23.5907 31.3149 23.8206C31.6694 24.0455 32.0753 24.1755 32.5325 24.2108C32.9927 24.241 33.4655 24.1911 33.9509 24.0611C34.5159 23.9097 34.9987 23.6822 35.3993 23.3787C35.7988 23.0712 36.0856 22.7172 36.2598 22.3165C36.4328 21.9119 36.4596 21.4868 36.3402 21.0412C36.2315 20.6353 36.0296 20.3354 35.7346 20.1416C35.4395 19.9477 35.0857 19.8207 34.673 19.7607C34.2603 19.7007 33.8231 19.6686 33.3614 19.6644L31.7422 19.6377C30.7136 19.619 29.8526 19.4296 29.1591 19.0696C28.4656 18.7095 28.0084 18.1177 27.7878 17.294C27.6044 16.6097 27.6295 15.9632 27.863 15.3548C28.0995 14.7413 28.4943 14.209 29.0473 13.7581C29.6031 13.3021 30.271 12.9696 31.0509 12.7606C31.8388 12.5495 32.5769 12.5031 33.2654 12.6214C33.9528 12.7358 34.5405 12.9877 35.0287 13.3772C35.5209 13.7656 35.8595 14.2655 36.0447 14.8769L34.6123 15.2607Z" fill="#38DB87"/>
</svg>
