<svg width="101" height="49" viewBox="0 0 101 49" fill="none" xmlns="http://www.w3.org/2000/svg">
<rect width="101" height="49" rx="10" fill="#9D9D9D"/>
<path d="M19.05 22.982V24.98H28.842V22.982H19.05ZM19.05 26.834V28.832H28.842V26.834H19.05ZM19.05 30.704V32.702H28.842V30.704H19.05ZM17.574 19.058V33.602H19.77V21.128H28.356V33.566H30.66V19.058H17.574ZM22.686 16.7C22.56 17.636 22.254 18.896 21.966 19.796L23.946 20.156C24.342 19.364 24.864 18.176 25.296 16.97L22.686 16.7ZM41.028 17.744V19.796H49.83V17.744H41.028ZM45.6 23.342V31.064C45.6 31.334 45.492 31.406 45.15 31.424C44.826 31.424 43.638 31.424 42.612 31.37C42.9 32 43.188 32.936 43.26 33.566C44.88 33.566 46.014 33.548 46.788 33.224C47.58 32.882 47.814 32.27 47.814 31.118V23.342H45.6ZM40.254 22.73V24.782H50.298V22.73H40.254ZM36.222 24.854V33.638H38.382V23.072L38.112 22.964L36.222 24.854ZM38.256 20.642C37.068 22.676 35.106 24.764 33.27 26.06C33.702 26.492 34.44 27.464 34.746 27.914C36.672 26.33 38.886 23.81 40.308 21.416L38.256 20.642ZM37.572 16.718C36.69 17.978 34.962 19.598 33.468 20.57C33.828 21.002 34.386 21.848 34.674 22.334C36.384 21.146 38.328 19.274 39.642 17.564L37.572 16.718ZM60.954 21.164V22.874H65.922V21.164H60.954ZM60.036 26.312V27.716H62.556V26.312H60.036ZM60.036 28.67V30.182H62.556V28.67H60.036ZM63.96 24.332V30.812H65.436V24.332H63.96ZM63.456 18.698C64.392 20.246 66.084 22.082 67.686 23.09C67.974 22.496 68.406 21.722 68.802 21.218C67.11 20.372 65.436 18.554 64.338 16.736H62.448C61.656 18.374 59.982 20.408 58.236 21.452C58.578 21.92 59.028 22.676 59.244 23.216C60.99 22.1 62.592 20.228 63.456 18.698ZM59.082 23.864V33.548H60.54V25.394H62.466V23.864H59.082ZM61.836 23.864V31.964C61.836 32.09 61.8 32.144 61.692 32.144C61.602 32.144 61.35 32.144 61.08 32.144C61.26 32.54 61.422 33.206 61.458 33.62C62.052 33.62 62.484 33.602 62.862 33.332C63.222 33.062 63.312 32.648 63.312 32V23.864H61.836ZM66.264 23.576V31.766C66.264 31.946 66.192 32 65.994 32.018C65.796 32.036 65.148 32.036 64.5 32.018C64.716 32.468 64.932 33.134 64.986 33.584C66.048 33.584 66.786 33.566 67.308 33.314C67.812 33.044 67.956 32.594 67.956 31.802V23.576H66.264ZM51.738 18.41V20.282H58.776V18.41H51.738ZM51.522 28.886V30.776H58.722V28.886H51.522ZM54.204 16.7V22.01H56.094V16.7H54.204ZM54.51 22.028V27.032H54.222V33.602H56.094V27.032H55.806V22.028H54.51ZM53.412 25.25H56.886V26.312H53.412V25.25ZM53.412 22.784H56.886V23.828H53.412V22.784ZM51.936 21.272V27.806H58.416V21.272H51.936ZM73.122 17.726V19.922H78.216V17.726H73.122ZM77.154 17.726C77.154 21.398 77.946 29.444 84.804 33.566C85.182 33.026 86.046 32.072 86.55 31.676C79.872 27.77 79.386 21.146 79.386 17.726H77.154ZM76.38 21.668C75.408 26.438 73.248 29.93 69.486 31.838C70.044 32.234 71.052 33.134 71.448 33.602C75.21 31.334 77.604 27.464 78.864 22.118L76.38 21.668Z" fill="white"/>
</svg>
