<svg width="60" height="61" viewBox="0 0 60 61" fill="none" xmlns="http://www.w3.org/2000/svg">
<g clip-path="url(#clip0_262_9358)">
<circle cx="29.8611" cy="30.261" r="29.8586" fill="#FFE142"/>
<path d="M49.5766 51.8138C43.2668 28.3776 13.8965 25.5247 0 26.4637L6.19707 45.6176L27.6051 58.0118C34.7412 56.3219 49.1259 51.8138 49.5766 51.8138Z" fill="#FFDA14"/>
<path fill-rule="evenodd" clip-rule="evenodd" d="M54.0434 48.0064C61.4909 35.7311 60.3167 19.9934 50.2558 9.93258C40.195 -0.128276 24.4573 -1.30249 12.182 6.14501L16.303 10.266C26.3382 4.8253 38.5511 6.19514 46.2722 13.9162C53.9933 21.6373 55.3631 33.8502 49.9224 43.8854L54.0434 48.0064Z" fill="#FF9900"/>
<circle cx="29.8611" cy="30.261" r="27.0418" stroke="#FFBC57" stroke-width="5.6337"/>
<path d="M25.8455 23.5937V38.3438H22.7269V26.5538H22.6405L19.2627 28.6712V25.9056L22.9142 23.5937H25.8455ZM35.1345 38.6678C33.8957 38.663 32.8298 38.3582 31.9367 37.7532C31.0484 37.1482 30.3642 36.2719 29.8841 35.1244C29.4087 33.9768 29.1735 32.5964 29.1783 30.9831C29.1783 29.3746 29.416 28.0038 29.8913 26.8707C30.3714 25.7375 31.0556 24.8757 31.9439 24.2851C32.837 23.6897 33.9005 23.392 35.1345 23.392C36.3685 23.392 37.4296 23.6897 38.3178 24.2851C39.2109 24.8805 39.8975 25.7447 40.3777 26.8779C40.8578 28.0062 41.0955 29.3746 41.0907 30.9831C41.0907 32.6012 40.8506 33.984 40.3705 35.1316C39.8951 36.2791 39.2133 37.1554 38.325 37.7604C37.4368 38.3654 36.3733 38.6678 35.1345 38.6678ZM35.1345 36.0823C35.9795 36.0823 36.6541 35.6573 37.1583 34.8075C37.6624 33.9576 37.9121 32.6828 37.9073 30.9831C37.9073 29.8644 37.7921 28.9329 37.5616 28.1887C37.3359 27.4445 37.0142 26.8851 36.5965 26.5106C36.1836 26.1361 35.6962 25.9488 35.1345 25.9488C34.2942 25.9488 33.622 26.3689 33.1179 27.2092C32.6137 28.0494 32.3592 29.3074 32.3544 30.9831C32.3544 32.1163 32.4673 33.0622 32.6929 33.8208C32.9234 34.5746 33.2475 35.1412 33.6652 35.5205C34.083 35.895 34.5727 36.0823 35.1345 36.0823Z" fill="black"/>
</g>
<defs>
<clipPath id="clip0_262_9358">
<rect width="60" height="61" fill="white"/>
</clipPath>
</defs>
</svg>
