<svg width="60" height="61" viewBox="0 0 60 61" fill="none" xmlns="http://www.w3.org/2000/svg">
<g clip-path="url(#clip0_262_9357)">
<circle cx="29.8611" cy="30.261" r="29.8586" fill="#FFE142"/>
<path d="M49.5766 51.8138C43.2668 28.3776 13.8965 25.5247 0 26.4637L6.19707 45.6176L27.6051 58.0118C34.7412 56.3219 49.1259 51.8138 49.5766 51.8138Z" fill="#FFDA14"/>
<path fill-rule="evenodd" clip-rule="evenodd" d="M54.0434 48.0064C61.4909 35.7311 60.3167 19.9934 50.2558 9.93258C40.195 -0.128277 24.4573 -1.30249 12.182 6.14501L16.303 10.266C26.3382 4.8253 38.5511 6.19514 46.2722 13.9162C53.9933 21.6373 55.3631 33.8502 49.9224 43.8854L54.0434 48.0064Z" fill="#FF9900"/>
<circle cx="29.8611" cy="30.261" r="27.0418" stroke="#FFBC57" stroke-width="5.6337"/>
<path d="M30.2226 38.5454C29.2047 38.5454 28.2972 38.3582 27.5002 37.9836C26.7079 37.6091 26.0789 37.093 25.6132 36.4352C25.1475 35.7774 24.905 35.0235 24.8858 34.1737H27.9107C27.9443 34.7451 28.1844 35.2084 28.6309 35.5637C29.0774 35.919 29.608 36.0967 30.2226 36.0967C30.7123 36.0967 31.1445 35.9886 31.519 35.7726C31.8983 35.5517 32.1936 35.2468 32.4049 34.8579C32.6209 34.4642 32.729 34.0128 32.729 33.5039C32.729 32.9853 32.6185 32.5292 32.3977 32.1355C32.1816 31.7418 31.8815 31.4345 31.4974 31.2136C31.1133 30.9927 30.6739 30.8799 30.1794 30.8751C29.7473 30.8751 29.3271 30.9639 28.919 31.1416C28.5157 31.3192 28.2012 31.5617 27.9755 31.869L25.2027 31.372L25.9013 23.5937H34.9184V26.1433H28.4725L28.0908 29.838H28.1772C28.4365 29.4731 28.8278 29.1706 29.3511 28.9305C29.8745 28.6904 30.4603 28.5704 31.1085 28.5704C31.9967 28.5704 32.789 28.7793 33.4852 29.197C34.1814 29.6147 34.7312 30.1885 35.1345 30.9183C35.5378 31.6433 35.7371 32.4788 35.7323 33.4247C35.7371 34.4186 35.5066 35.302 35.0409 36.0751C34.5799 36.8433 33.9341 37.4483 33.1035 37.89C32.2776 38.3269 31.3173 38.5454 30.2226 38.5454Z" fill="black"/>
</g>
<defs>
<clipPath id="clip0_262_9357">
<rect width="60" height="61" fill="white"/>
</clipPath>
</defs>
</svg>
