<svg width="101" height="49" viewBox="0 0 101 49" fill="none" xmlns="http://www.w3.org/2000/svg">
<g clip-path="url(#clip0_262_9365)">
<rect x="1.5" y="1.5" width="98" height="46" fill="#38DB87" stroke="#005D4D" stroke-width="3"/>
<circle cx="5" cy="5" r="7" fill="#005D4D"/>
<circle cx="96" cy="5" r="7" fill="#005D4D"/>
<circle cx="96" cy="44" r="7" fill="#005D4D"/>
<circle cx="4" cy="44" r="7" fill="#005D4D"/>
<path d="M24.4598 33.6364V17.2727H25.5081V33.6364H24.4598ZM27.2403 22.674C27.1892 22.1584 26.9697 21.7578 26.5819 21.4723C26.1942 21.1868 25.6679 21.044 25.0031 21.044C24.5514 21.044 24.17 21.108 23.8589 21.2358C23.5479 21.3594 23.3092 21.532 23.143 21.7536C22.9811 21.9751 22.9001 22.2266 22.9001 22.5078C22.8916 22.7422 22.9406 22.9467 23.0471 23.1214C23.1579 23.2962 23.3092 23.4474 23.501 23.5753C23.6927 23.6989 23.9143 23.8075 24.1657 23.9013C24.4172 23.9908 24.6856 24.0675 24.9711 24.1314L26.1473 24.4126C26.7183 24.5405 27.2425 24.7109 27.7197 24.924C28.197 25.1371 28.6104 25.3991 28.9598 25.7102C29.3092 26.0213 29.5798 26.3878 29.7716 26.8097C29.9676 27.2315 30.0677 27.7152 30.072 28.2607C30.0677 29.0618 29.8632 29.7564 29.4584 30.3445C29.0578 30.9283 28.4782 31.3821 27.7197 31.706C26.9655 32.0256 26.0557 32.1854 24.9903 32.1854C23.9335 32.1854 23.0131 32.0234 22.229 31.6996C21.4491 31.3757 20.8398 30.8963 20.4008 30.2614C19.9662 29.6222 19.7382 28.8317 19.7169 27.8899H22.3952C22.425 28.3288 22.5507 28.6953 22.7723 28.9893C22.9981 29.2791 23.2986 29.4986 23.6736 29.6477C24.0528 29.7926 24.4811 29.8651 24.9584 29.8651C25.4271 29.8651 25.8341 29.7969 26.1792 29.6605C26.5287 29.5241 26.7993 29.3345 26.991 29.0916C27.1828 28.8487 27.2787 28.5696 27.2787 28.2543C27.2787 27.9602 27.1913 27.7131 27.0166 27.5128C26.8461 27.3125 26.5947 27.142 26.2623 27.0014C25.9342 26.8608 25.5315 26.733 25.0542 26.6179L23.6288 26.2599C22.5251 25.9915 21.6537 25.5717 21.0145 25.0007C20.3753 24.4297 20.0578 23.6605 20.0621 22.6932C20.0578 21.9006 20.2687 21.2081 20.6949 20.6158C21.1253 20.0234 21.7155 19.5611 22.4655 19.2287C23.2155 18.8963 24.0677 18.7301 25.0223 18.7301C25.9939 18.7301 26.8419 18.8963 27.5663 19.2287C28.295 19.5611 28.8618 20.0234 29.2666 20.6158C29.6714 21.2081 29.8802 21.8942 29.893 22.674H27.2403ZM37.5523 18.9091V32H34.7845V21.5362H34.7078L31.71 23.4155V20.9609L34.9507 18.9091H37.5523ZM42.9456 30.2102L42.8753 30.9134C42.8199 31.4759 42.7133 32.0362 42.5557 32.5945C42.4023 33.157 42.2403 33.6662 42.0699 34.1222C41.9037 34.5781 41.7694 34.9361 41.6672 35.196H39.903C39.9669 34.9446 40.0542 34.593 40.165 34.1413C40.2758 33.6939 40.3802 33.1911 40.4782 32.6328C40.5763 32.0746 40.6381 31.5057 40.6636 30.9261L40.6956 30.2102H42.9456ZM50.0152 32.2876C48.9157 32.2834 47.9697 32.0128 47.1771 31.4759C46.3888 30.9389 45.7815 30.1612 45.3554 29.1428C44.9335 28.1243 44.7247 26.8991 44.729 25.4673C44.729 24.0398 44.9399 22.8232 45.3618 21.8175C45.7879 20.8118 46.3952 20.0469 47.1835 19.5227C47.9761 18.9943 48.92 18.7301 50.0152 18.7301C51.1104 18.7301 52.0521 18.9943 52.8405 19.5227C53.6331 20.0511 54.2425 20.8182 54.6686 21.8239C55.0947 22.8253 55.3057 24.0398 55.3014 25.4673C55.3014 26.9034 55.0883 28.1307 54.6622 29.1491C54.2403 30.1676 53.6352 30.9453 52.8469 31.4822C52.0585 32.0192 51.1146 32.2876 50.0152 32.2876ZM50.0152 29.9929C50.7652 29.9929 51.3639 29.6158 51.8113 28.8615C52.2588 28.1072 52.4804 26.9759 52.4761 25.4673C52.4761 24.4744 52.3738 23.6477 52.1693 22.9872C51.969 22.3267 51.6835 21.8303 51.3128 21.4979C50.9463 21.1655 50.5138 20.9993 50.0152 20.9993C49.2694 20.9993 48.6729 21.3722 48.2254 22.1179C47.778 22.8636 47.5521 23.9801 47.5479 25.4673C47.5479 26.473 47.648 27.3125 47.8483 27.9858C48.0528 28.6548 48.3405 29.1577 48.7112 29.4943C49.0819 29.8267 49.5166 29.9929 50.0152 29.9929ZM62.4078 32.2876C61.3083 32.2834 60.3623 32.0128 59.5697 31.4759C58.7813 30.9389 58.1741 30.1612 57.748 29.1428C57.3261 28.1243 57.1173 26.8991 57.1215 25.4673C57.1215 24.0398 57.3325 22.8232 57.7544 21.8175C58.1805 20.8118 58.7877 20.0469 59.5761 19.5227C60.3687 18.9943 61.3126 18.7301 62.4078 18.7301C63.5029 18.7301 64.4447 18.9943 65.233 19.5227C66.0257 20.0511 66.635 20.8182 67.0612 21.8239C67.4873 22.8253 67.6982 24.0398 67.694 25.4673C67.694 26.9034 67.4809 28.1307 67.0548 29.1491C66.6329 30.1676 66.0278 30.9453 65.2394 31.4822C64.4511 32.0192 63.5072 32.2876 62.4078 32.2876ZM62.4078 29.9929C63.1578 29.9929 63.7565 29.6158 64.2039 28.8615C64.6514 28.1072 64.873 26.9759 64.8687 25.4673C64.8687 24.4744 64.7664 23.6477 64.5619 22.9872C64.3616 22.3267 64.0761 21.8303 63.7053 21.4979C63.3389 21.1655 62.9063 20.9993 62.4078 20.9993C61.662 20.9993 61.0654 21.3722 60.618 22.1179C60.1705 22.8636 59.9447 23.9801 59.9404 25.4673C59.9404 26.473 60.0406 27.3125 60.2409 27.9858C60.4454 28.6548 60.733 29.1577 61.1038 29.4943C61.4745 29.8267 61.9092 29.9929 62.4078 29.9929ZM74.8003 32.2876C73.7009 32.2834 72.7549 32.0128 71.9623 31.4759C71.1739 30.9389 70.5667 30.1612 70.1405 29.1428C69.7187 28.1243 69.5099 26.8991 69.5141 25.4673C69.5141 24.0398 69.7251 22.8232 70.1469 21.8175C70.5731 20.8118 71.1803 20.0469 71.9687 19.5227C72.7613 18.9943 73.7052 18.7301 74.8003 18.7301C75.8955 18.7301 76.8373 18.9943 77.6256 19.5227C78.4182 20.0511 79.0276 20.8182 79.4537 21.8239C79.8799 22.8253 80.0908 24.0398 80.0866 25.4673C80.0866 26.9034 79.8735 28.1307 79.4474 29.1491C79.0255 30.1676 78.4204 30.9453 77.632 31.4822C76.8437 32.0192 75.8998 32.2876 74.8003 32.2876ZM74.8003 29.9929C75.5503 29.9929 76.1491 29.6158 76.5965 28.8615C77.0439 28.1072 77.2655 26.9759 77.2613 25.4673C77.2613 24.4744 77.159 23.6477 76.9545 22.9872C76.7542 22.3267 76.4687 21.8303 76.0979 21.4979C75.7314 21.1655 75.2989 20.9993 74.8003 20.9993C74.0546 20.9993 73.458 21.3722 73.0106 22.1179C72.5631 22.8636 72.3373 23.9801 72.333 25.4673C72.333 26.473 72.4331 27.3125 72.6334 27.9858C72.838 28.6548 73.1256 29.1577 73.4964 29.4943C73.8671 29.8267 74.3018 29.9929 74.8003 29.9929Z" fill="white"/>
</g>
<defs>
<clipPath id="clip0_262_9365">
<rect width="101" height="49" fill="white"/>
</clipPath>
</defs>
</svg>
