<svg width="101" height="49" viewBox="0 0 101 49" fill="none" xmlns="http://www.w3.org/2000/svg">
<g clip-path="url(#clip0_262_9364)">
<rect x="1.5" y="1.5" width="98" height="46" fill="#38DB87" stroke="#005D4D" stroke-width="3"/>
<circle cx="5" cy="5" r="7" fill="#005D4D"/>
<circle cx="96" cy="5" r="7" fill="#005D4D"/>
<circle cx="96" cy="44" r="7" fill="#005D4D"/>
<circle cx="4" cy="44" r="7" fill="#005D4D"/>
<path d="M31.868 33.6364V17.2727H32.9163V33.6364H31.868ZM34.6485 22.674C34.5974 22.1584 34.3779 21.7578 33.9901 21.4723C33.6024 21.1868 33.0761 21.044 32.4113 21.044C31.9596 21.044 31.5782 21.108 31.2671 21.2358C30.9561 21.3594 30.7174 21.532 30.5512 21.7536C30.3893 21.9751 30.3083 22.2266 30.3083 22.5078C30.2998 22.7422 30.3488 22.9467 30.4553 23.1214C30.5661 23.2962 30.7174 23.4474 30.9092 23.5753C31.1009 23.6989 31.3225 23.8075 31.574 23.9013C31.8254 23.9908 32.0938 24.0675 32.3794 24.1314L33.5555 24.4126C34.1265 24.5405 34.6507 24.7109 35.1279 24.924C35.6052 25.1371 36.0186 25.3991 36.368 25.7102C36.7174 26.0213 36.988 26.3878 37.1798 26.8097C37.3758 27.2315 37.4759 27.7152 37.4802 28.2607C37.4759 29.0618 37.2714 29.7564 36.8666 30.3445C36.466 30.9283 35.8865 31.3821 35.1279 31.706C34.3737 32.0256 33.4639 32.1854 32.3985 32.1854C31.3417 32.1854 30.4213 32.0234 29.6372 31.6996C28.8573 31.3757 28.248 30.8963 27.809 30.2614C27.3744 29.6222 27.1464 28.8317 27.1251 27.8899H29.8034C29.8332 28.3288 29.9589 28.6953 30.1805 28.9893C30.4063 29.2791 30.7068 29.4986 31.0818 29.6477C31.461 29.7926 31.8893 29.8651 32.3666 29.8651C32.8353 29.8651 33.2423 29.7969 33.5874 29.6605C33.9369 29.5241 34.2075 29.3345 34.3992 29.0916C34.591 28.8487 34.6869 28.5696 34.6869 28.2543C34.6869 27.9602 34.5995 27.7131 34.4248 27.5128C34.2544 27.3125 34.0029 27.142 33.6705 27.0014C33.3424 26.8608 32.9397 26.733 32.4624 26.6179L31.037 26.2599C29.9333 25.9915 29.0619 25.5717 28.4227 25.0007C27.7835 24.4297 27.466 23.6605 27.4703 22.6932C27.466 21.9006 27.6769 21.2081 28.1031 20.6158C28.5335 20.0234 29.1237 19.5611 29.8737 19.2287C30.6237 18.8963 31.4759 18.7301 32.4305 18.7301C33.4021 18.7301 34.2501 18.8963 34.9745 19.2287C35.7032 19.5611 36.27 20.0234 36.6748 20.6158C37.0796 21.2081 37.2884 21.8942 37.3012 22.674H34.6485ZM44.0464 32.179C43.143 32.179 42.3376 32.0128 41.6302 31.6804C40.9271 31.348 40.3689 30.8899 39.9555 30.3061C39.5422 29.7223 39.327 29.0533 39.3099 28.299H41.9946C42.0244 28.8061 42.2375 29.2173 42.6338 29.5327C43.0301 29.848 43.501 30.0057 44.0464 30.0057C44.4811 30.0057 44.8646 29.9098 45.197 29.718C45.5336 29.522 45.7957 29.2514 45.9832 28.9062C46.175 28.5568 46.2709 28.1562 46.2709 27.7045C46.2709 27.2443 46.1729 26.8395 45.9768 26.4901C45.7851 26.1406 45.5187 25.8679 45.1778 25.6719C44.8369 25.4759 44.447 25.3757 44.0081 25.3714C43.6246 25.3714 43.2517 25.4503 42.8895 25.608C42.5315 25.7656 42.2524 25.9808 42.0521 26.2536L39.5912 25.8125L40.2112 18.9091H48.214V21.1719H42.4932L42.1544 24.451H42.2311C42.4612 24.1271 42.8085 23.8587 43.273 23.6456C43.7375 23.4325 44.2574 23.326 44.8327 23.326C45.621 23.326 46.3241 23.5114 46.942 23.8821C47.5599 24.2528 48.0479 24.7621 48.4058 25.4098C48.7638 26.0533 48.9406 26.7947 48.9363 27.6342C48.9406 28.5163 48.7361 29.3004 48.3227 29.9865C47.9136 30.6683 47.3405 31.2053 46.6032 31.5973C45.8703 31.9851 45.018 32.179 44.0464 32.179ZM55.9996 32.2876C54.9001 32.2834 53.9541 32.0128 53.1615 31.4759C52.3731 30.9389 51.7659 30.1612 51.3398 29.1428C50.9179 28.1243 50.7091 26.8991 50.7133 25.4673C50.7133 24.0398 50.9243 22.8232 51.3461 21.8175C51.7723 20.8118 52.3795 20.0469 53.1679 19.5227C53.9605 18.9943 54.9044 18.7301 55.9996 18.7301C57.0947 18.7301 58.0365 18.9943 58.8248 19.5227C59.6175 20.0511 60.2268 20.8182 60.653 21.8239C61.0791 22.8253 61.29 24.0398 61.2858 25.4673C61.2858 26.9034 61.0727 28.1307 60.6466 29.1491C60.2247 30.1676 59.6196 30.9453 58.8312 31.4822C58.0429 32.0192 57.099 32.2876 55.9996 32.2876ZM55.9996 29.9929C56.7496 29.9929 57.3483 29.6158 57.7957 28.8615C58.2432 28.1072 58.4648 26.9759 58.4605 25.4673C58.4605 24.4744 58.3582 23.6477 58.1537 22.9872C57.9534 22.3267 57.6679 21.8303 57.2971 21.4979C56.9307 21.1655 56.4981 20.9993 55.9996 20.9993C55.2538 20.9993 54.6572 21.3722 54.2098 22.1179C53.7623 22.8636 53.5365 23.9801 53.5322 25.4673C53.5322 26.473 53.6324 27.3125 53.8327 27.9858C54.0372 28.6548 54.3248 29.1577 54.6956 29.4943C55.0663 29.8267 55.501 29.9929 55.9996 29.9929ZM68.3921 32.2876C67.2927 32.2834 66.3467 32.0128 65.5541 31.4759C64.7657 30.9389 64.1585 30.1612 63.7323 29.1428C63.3105 28.1243 63.1017 26.8991 63.1059 25.4673C63.1059 24.0398 63.3169 22.8232 63.7387 21.8175C64.1649 20.8118 64.7721 20.0469 65.5605 19.5227C66.3531 18.9943 67.297 18.7301 68.3921 18.7301C69.4873 18.7301 70.4291 18.9943 71.2174 19.5227C72.01 20.0511 72.6194 20.8182 73.0455 21.8239C73.4717 22.8253 73.6826 24.0398 73.6784 25.4673C73.6784 26.9034 73.4653 28.1307 73.0392 29.1491C72.6173 30.1676 72.0122 30.9453 71.2238 31.4822C70.4355 32.0192 69.4916 32.2876 68.3921 32.2876ZM68.3921 29.9929C69.1421 29.9929 69.7409 29.6158 70.1883 28.8615C70.6357 28.1072 70.8573 26.9759 70.8531 25.4673C70.8531 24.4744 70.7508 23.6477 70.5463 22.9872C70.346 22.3267 70.0605 21.8303 69.6897 21.4979C69.3232 21.1655 68.8907 20.9993 68.3921 20.9993C67.6464 20.9993 67.0498 21.3722 66.6024 22.1179C66.1549 22.8636 65.9291 23.9801 65.9248 25.4673C65.9248 26.473 66.0249 27.3125 66.2252 27.9858C66.4298 28.6548 66.7174 29.1577 67.0882 29.4943C67.4589 29.8267 67.8936 29.9929 68.3921 29.9929Z" fill="white"/>
</g>
<defs>
<clipPath id="clip0_262_9364">
<rect width="101" height="49" fill="white"/>
</clipPath>
</defs>
</svg>
