<svg width="101" height="49" viewBox="0 0 101 49" fill="none" xmlns="http://www.w3.org/2000/svg">
<g clip-path="url(#clip0_262_9363)">
<rect x="1.5" y="1.5" width="98" height="46" fill="#38DB87" stroke="#005D4D" stroke-width="3"/>
<circle cx="5" cy="5" r="7" fill="#005D4D"/>
<circle cx="96" cy="5" r="7" fill="#005D4D"/>
<circle cx="96" cy="44" r="7" fill="#005D4D"/>
<circle cx="4" cy="44" r="7" fill="#005D4D"/>
<path d="M32.7654 33.6364V17.2727H33.8137V33.6364H32.7654ZM35.546 22.674C35.4949 22.1584 35.2754 21.7578 34.8876 21.4723C34.4998 21.1868 33.9735 21.044 33.3088 21.044C32.8571 21.044 32.4757 21.108 32.1646 21.2358C31.8535 21.3594 31.6149 21.532 31.4487 21.7536C31.2868 21.9751 31.2058 22.2266 31.2058 22.5078C31.1973 22.7422 31.2463 22.9467 31.3528 23.1214C31.4636 23.2962 31.6149 23.4474 31.8066 23.5753C31.9984 23.6989 32.22 23.8075 32.4714 23.9013C32.7228 23.9908 32.9913 24.0675 33.2768 24.1314L34.4529 24.4126C35.024 24.5405 35.5481 24.7109 36.0254 24.924C36.5027 25.1371 36.916 25.3991 37.2654 25.7102C37.6149 26.0213 37.8855 26.3878 38.0772 26.8097C38.2733 27.2315 38.3734 27.7152 38.3777 28.2607C38.3734 29.0618 38.1689 29.7564 37.764 30.3445C37.3635 30.9283 36.7839 31.3821 36.0254 31.706C35.2711 32.0256 34.3613 32.1854 33.296 32.1854C32.2392 32.1854 31.3187 32.0234 30.5346 31.6996C29.7548 31.3757 29.1454 30.8963 28.7065 30.2614C28.2718 29.6222 28.0439 28.8317 28.0225 27.8899H30.7008C30.7306 28.3288 30.8564 28.6953 31.0779 28.9893C31.3038 29.2791 31.6042 29.4986 31.9792 29.6477C32.3585 29.7926 32.7868 29.8651 33.264 29.8651C33.7328 29.8651 34.1397 29.7969 34.4849 29.6605C34.8343 29.5241 35.1049 29.3345 35.2967 29.0916C35.4885 28.8487 35.5843 28.5696 35.5843 28.2543C35.5843 27.9602 35.497 27.7131 35.3223 27.5128C35.1518 27.3125 34.9004 27.142 34.568 27.0014C34.2399 26.8608 33.8372 26.733 33.3599 26.6179L31.9345 26.2599C30.8308 25.9915 29.9593 25.5717 29.3201 25.0007C28.6809 24.4297 28.3635 23.6605 28.3677 22.6932C28.3635 21.9006 28.5744 21.2081 29.0005 20.6158C29.4309 20.0234 30.0211 19.5611 30.7711 19.2287C31.5211 18.8963 32.3734 18.7301 33.3279 18.7301C34.2995 18.7301 35.1475 18.8963 35.872 19.2287C36.6007 19.5611 37.1674 20.0234 37.5723 20.6158C37.9771 21.2081 38.1859 21.8942 38.1987 22.674H35.546ZM45.858 18.9091V32H43.0902V21.5362H43.0135L40.0156 23.4155V20.9609L43.2564 18.9091H45.858ZM54.1021 32.2876C53.0027 32.2834 52.0566 32.0128 51.264 31.4759C50.4757 30.9389 49.8684 30.1612 49.4423 29.1428C49.0204 28.1243 48.8116 26.8991 48.8159 25.4673C48.8159 24.0398 49.0268 22.8232 49.4487 21.8175C49.8748 20.8118 50.4821 20.0469 51.2704 19.5227C52.063 18.9943 53.0069 18.7301 54.1021 18.7301C55.1973 18.7301 56.139 18.9943 56.9274 19.5227C57.72 20.0511 58.3294 20.8182 58.7555 21.8239C59.1816 22.8253 59.3926 24.0398 59.3883 25.4673C59.3883 26.9034 59.1752 28.1307 58.7491 29.1491C58.3272 30.1676 57.7221 30.9453 56.9338 31.4822C56.1454 32.0192 55.2015 32.2876 54.1021 32.2876ZM54.1021 29.9929C54.8521 29.9929 55.4508 29.6158 55.8983 28.8615C56.3457 28.1072 56.5673 26.9759 56.563 25.4673C56.563 24.4744 56.4608 23.6477 56.2562 22.9872C56.0559 22.3267 55.7704 21.8303 55.3997 21.4979C55.0332 21.1655 54.6007 20.9993 54.1021 20.9993C53.3564 20.9993 52.7598 21.3722 52.3123 22.1179C51.8649 22.8636 51.639 23.9801 51.6348 25.4673C51.6348 26.473 51.7349 27.3125 51.9352 27.9858C52.1397 28.6548 52.4274 29.1577 52.7981 29.4943C53.1689 29.8267 53.6035 29.9929 54.1021 29.9929ZM66.4947 32.2876C65.3952 32.2834 64.4492 32.0128 63.6566 31.4759C62.8683 30.9389 62.261 30.1612 61.8349 29.1428C61.413 28.1243 61.2042 26.8991 61.2085 25.4673C61.2085 24.0398 61.4194 22.8232 61.8413 21.8175C62.2674 20.8118 62.8746 20.0469 63.663 19.5227C64.4556 18.9943 65.3995 18.7301 66.4947 18.7301C67.5898 18.7301 68.5316 18.9943 69.32 19.5227C70.1126 20.0511 70.7219 20.8182 71.1481 21.8239C71.5742 22.8253 71.7852 24.0398 71.7809 25.4673C71.7809 26.9034 71.5678 28.1307 71.1417 29.1491C70.7198 30.1676 70.1147 30.9453 69.3264 31.4822C68.538 32.0192 67.5941 32.2876 66.4947 32.2876ZM66.4947 29.9929C67.2447 29.9929 67.8434 29.6158 68.2908 28.8615C68.7383 28.1072 68.9599 26.9759 68.9556 25.4673C68.9556 24.4744 68.8533 23.6477 68.6488 22.9872C68.4485 22.3267 68.163 21.8303 67.7923 21.4979C67.4258 21.1655 66.9933 20.9993 66.4947 20.9993C65.7489 20.9993 65.1523 21.3722 64.7049 22.1179C64.2575 22.8636 64.0316 23.9801 64.0273 25.4673C64.0273 26.473 64.1275 27.3125 64.3278 27.9858C64.5323 28.6548 64.82 29.1577 65.1907 29.4943C65.5614 29.8267 65.9961 29.9929 66.4947 29.9929Z" fill="white"/>
</g>
<defs>
<clipPath id="clip0_262_9363">
<rect width="101" height="49" fill="white"/>
</clipPath>
</defs>
</svg>
