<svg width="60" height="61" viewBox="0 0 60 61" fill="none" xmlns="http://www.w3.org/2000/svg">
<g clip-path="url(#clip0_262_9359)">
<circle cx="29.8611" cy="30.261" r="29.8586" fill="#FFE142"/>
<path d="M49.5766 51.8138C43.2668 28.3776 13.8965 25.5247 0 26.4637L6.19707 45.6176L27.6051 58.0118C34.7412 56.3219 49.1259 51.8138 49.5766 51.8138Z" fill="#FFDA14"/>
<path fill-rule="evenodd" clip-rule="evenodd" d="M54.0434 48.0064C61.4909 35.7311 60.3167 19.9934 50.2558 9.93258C40.195 -0.128276 24.4573 -1.30249 12.182 6.14501L16.303 10.266C26.3382 4.8253 38.5511 6.19514 46.2722 13.9162C53.9933 21.6373 55.3631 33.8502 49.9224 43.8854L54.0434 48.0064Z" fill="#FF9900"/>
<circle cx="29.8611" cy="30.261" r="27.0418" stroke="#FFBC57" stroke-width="5.6337"/>
<path d="M23.241 38.5454C22.2231 38.5454 21.3156 38.3582 20.5186 37.9836C19.7263 37.6091 19.0973 37.093 18.6316 36.4352C18.1659 35.7774 17.9234 35.0235 17.9042 34.1737H20.9291C20.9627 34.7451 21.2028 35.2084 21.6493 35.5637C22.0958 35.919 22.6264 36.0967 23.241 36.0967C23.7307 36.0967 24.1629 35.9886 24.5374 35.7726C24.9167 35.5517 25.212 35.2468 25.4232 34.8579C25.6393 34.4642 25.7473 34.0128 25.7473 33.5039C25.7473 32.9853 25.6369 32.5292 25.416 32.1355C25.2 31.7418 24.8999 31.4345 24.5158 31.2136C24.1317 30.9927 23.6923 30.8799 23.1978 30.8751C22.7656 30.8751 22.3455 30.9639 21.9374 31.1416C21.5341 31.3192 21.2196 31.5617 20.9939 31.869L18.2211 31.372L18.9197 23.5937H27.9368V26.1433H21.4909L21.1091 29.838H21.1956C21.4548 29.4731 21.8462 29.1706 22.3695 28.9305C22.8929 28.6904 23.4787 28.5704 24.1269 28.5704C25.0151 28.5704 25.8074 28.7793 26.5036 29.197C27.1998 29.6147 27.7495 30.1885 28.1529 30.9183C28.5562 31.6433 28.7555 32.4788 28.7507 33.4247C28.7555 34.4186 28.525 35.302 28.0592 36.0751C27.5983 36.8433 26.9525 37.4483 26.1219 37.89C25.296 38.3269 24.3357 38.5454 23.241 38.5454ZM36.7091 38.6678C35.4703 38.663 34.4044 38.3582 33.5113 37.7532C32.623 37.1482 31.9388 36.2719 31.4587 35.1244C30.9833 33.9768 30.7481 32.5964 30.7529 30.9831C30.7529 29.3746 30.9905 28.0038 31.4659 26.8707C31.946 25.7375 32.6302 24.8757 33.5185 24.2851C34.4116 23.6897 35.4751 23.392 36.7091 23.392C37.943 23.392 39.0041 23.6897 39.8924 24.2851C40.7855 24.8805 41.4721 25.7447 41.9522 26.8779C42.4324 28.0062 42.6701 29.3746 42.6653 30.9831C42.6653 32.6012 42.4252 33.984 41.945 35.1316C41.4697 36.2791 40.7879 37.1554 39.8996 37.7604C39.0113 38.3654 37.9478 38.6678 36.7091 38.6678ZM36.7091 36.0823C37.5541 36.0823 38.2287 35.6573 38.7329 34.8075C39.237 33.9576 39.4867 32.6828 39.4819 30.9831C39.4819 29.8644 39.3667 28.9329 39.1362 28.1887C38.9105 27.4445 38.5888 26.8851 38.1711 26.5106C37.7582 26.1361 37.2708 25.9488 36.7091 25.9488C35.8688 25.9488 35.1966 26.3689 34.6924 27.2092C34.1883 28.0494 33.9338 29.3074 33.929 30.9831C33.929 32.1163 34.0418 33.0622 34.2675 33.8208C34.498 34.5746 34.8221 35.1412 35.2398 35.5205C35.6575 35.895 36.1473 36.0823 36.7091 36.0823Z" fill="black"/>
</g>
<defs>
<clipPath id="clip0_262_9359">
<rect width="60" height="61" fill="white"/>
</clipPath>
</defs>
</svg>
