<svg width="60" height="61" viewBox="0 0 60 61" fill="none" xmlns="http://www.w3.org/2000/svg">
<g clip-path="url(#clip0_262_9356)">
<circle cx="29.8611" cy="30.261" r="29.8586" fill="#FFE142"/>
<path d="M49.5766 51.8138C43.2668 28.3776 13.8965 25.5247 0 26.4637L6.19707 45.6176L27.6051 58.0118C34.7412 56.3219 49.1259 51.8138 49.5766 51.8138Z" fill="#FFDA14"/>
<path fill-rule="evenodd" clip-rule="evenodd" d="M54.0434 48.0064C61.4909 35.7311 60.3167 19.9934 50.2558 9.93258C40.195 -0.128277 24.4573 -1.30249 12.182 6.14501L16.303 10.266C26.3382 4.8253 38.5511 6.19514 46.2722 13.9162C53.9933 21.6373 55.3631 33.8502 49.9224 43.8854L54.0434 48.0064Z" fill="#FF9900"/>
<circle cx="29.8611" cy="30.261" r="27.0418" stroke="#FFBC57" stroke-width="5.6337"/>
<path d="M32.8271 23.5937V38.3438H29.7085V26.5538H29.6221L26.2443 28.6712V25.9056L29.8958 23.5937H32.8271Z" fill="black"/>
</g>
<defs>
<clipPath id="clip0_262_9356">
<rect width="60" height="61" fill="white"/>
</clipPath>
</defs>
</svg>
