<svg width="28" height="32" viewBox="0 0 28 32" fill="none" xmlns="http://www.w3.org/2000/svg">
<path d="M26.3456 4.5H19.4729V2.8125C19.4729 2.06658 19.1711 1.35121 18.6341 0.823762C18.0971 0.296316 17.3687 0 16.6092 0H10.8819C10.1224 0 9.39402 0.296316 8.85698 0.823762C8.31994 1.35121 8.01823 2.06658 8.01823 2.8125V4.5H1.14546C0.841667 4.5 0.550314 4.61853 0.335498 4.82951C0.120682 5.04048 0 5.32663 0 5.625C0 5.92337 0.120682 6.20952 0.335498 6.42049C0.550314 6.63147 0.841667 6.75 1.14546 6.75H2.36252L3.72275 28.1897C3.82441 30.0776 5.29776 31.5 7.15914 31.5H20.3319C22.2026 31.5 23.6466 30.1092 23.7683 28.1953L25.1286 6.75H26.3456C26.6494 6.75 26.9408 6.63147 27.1556 6.42049C27.3704 6.20952 27.4911 5.92337 27.4911 5.625C27.4911 5.32663 27.3704 5.04048 27.1556 4.82951C26.9408 4.61853 26.6494 4.5 26.3456 4.5ZM9.2045 27H9.1637C8.86684 27.0002 8.5815 26.8872 8.36782 26.6848C8.15414 26.4824 8.02881 26.2064 8.01823 25.9151L7.4455 10.1651C7.43468 9.86671 7.54498 9.57634 7.75215 9.35784C7.95931 9.13935 8.24636 9.01063 8.55016 9C8.85395 8.98937 9.1496 9.0977 9.37207 9.30116C9.59454 9.50463 9.7256 9.78655 9.73643 10.0849L10.3092 25.8349C10.3146 25.9827 10.2904 26.13 10.2378 26.2686C10.1852 26.4071 10.1053 26.5341 10.0027 26.6424C9.90014 26.7506 9.77683 26.8378 9.63986 26.8992C9.5029 26.9606 9.35496 26.9948 9.2045 27ZM14.891 25.875C14.891 26.1734 14.7703 26.4595 14.5555 26.6705C14.3407 26.8815 14.0493 27 13.7455 27C13.4417 27 13.1504 26.8815 12.9356 26.6705C12.7208 26.4595 12.6001 26.1734 12.6001 25.875V10.125C12.6001 9.82663 12.7208 9.54048 12.9356 9.32951C13.1504 9.11853 13.4417 9 13.7455 9C14.0493 9 14.3407 9.11853 14.5555 9.32951C14.7703 9.54048 14.891 9.82663 14.891 10.125V25.875ZM17.1819 4.5H10.3092V2.8125C10.3083 2.7384 10.3225 2.66487 10.351 2.59624C10.3795 2.52761 10.4216 2.46527 10.475 2.41286C10.5283 2.36046 10.5918 2.31906 10.6617 2.29109C10.7316 2.26312 10.8064 2.24915 10.8819 2.25H16.6092C16.6846 2.24915 16.7595 2.26312 16.8294 2.29109C16.8993 2.31906 16.9627 2.36046 17.0161 2.41286C17.0695 2.46527 17.1116 2.52761 17.1401 2.59624C17.1686 2.66487 17.1828 2.7384 17.1819 2.8125V4.5ZM19.4729 25.9151C19.4623 26.2064 19.3369 26.4824 19.1233 26.6848C18.9096 26.8872 18.6242 27.0002 18.3274 27H18.2859C18.1355 26.9947 17.9876 26.9604 17.8507 26.899C17.7138 26.8376 17.5906 26.7503 17.4881 26.6421C17.3856 26.5339 17.3058 26.4069 17.2532 26.2684C17.2007 26.1299 17.1765 25.9826 17.1819 25.8349L17.7547 10.0849C17.76 9.93718 17.795 9.79193 17.8575 9.65745C17.92 9.52298 18.0089 9.40191 18.119 9.30116C18.2292 9.20042 18.3584 9.12197 18.4995 9.0703C18.6405 9.01862 18.7905 8.99474 18.9409 9C19.0914 9.00526 19.2392 9.03957 19.3762 9.10097C19.5131 9.16237 19.6364 9.24966 19.7389 9.35784C19.8415 9.46603 19.9214 9.593 19.974 9.73151C20.0266 9.87001 20.0509 10.0173 20.0456 10.1651L19.4729 25.9151Z" fill="#FF9B9B"/>
</svg>
