<svg width="46" height="46" viewBox="0 0 46 46" fill="none" xmlns="http://www.w3.org/2000/svg">
<path d="M37.9934 34.8968C35.9905 31.6695 31.5812 28.2109 22.568 28.2109C13.5548 28.2109 9.14833 31.6667 7.14258 34.8968C8.99059 37.2135 11.3372 39.0837 14.0079 40.3683C16.6785 41.6528 19.6045 42.3186 22.568 42.3161C25.5315 42.3186 28.4574 41.6528 31.1281 40.3683C33.7988 39.0837 36.1454 37.2135 37.9934 34.8968Z" fill="#555555"/>
<path fill-rule="evenodd" clip-rule="evenodd" d="M22.5774 25.2504C24.8219 25.2504 26.9745 24.3588 28.5617 22.7716C30.1488 21.1845 31.0405 19.0319 31.0405 16.7873C31.0405 14.5428 30.1488 12.3901 28.5617 10.803C26.9745 9.21586 24.8219 8.32422 22.5774 8.32422C20.3328 8.32422 18.1802 9.21586 16.593 10.803C15.0059 12.3901 14.1143 14.5428 14.1143 16.7873C14.1143 19.0319 15.0059 21.1845 16.593 22.7716C18.1802 24.3588 20.3328 25.2504 22.5774 25.2504Z" fill="#555555"/>
<path fill-rule="evenodd" clip-rule="evenodd" d="M22.5683 2.82103C17.331 2.82103 12.3082 4.90154 8.60487 8.60487C4.90154 12.3082 2.82103 17.331 2.82103 22.5683C2.82103 27.8056 4.90154 32.8284 8.60487 36.5317C12.3082 40.235 17.331 42.3155 22.5683 42.3155C27.8056 42.3155 32.8284 40.235 36.5317 36.5317C40.235 32.8284 42.3155 27.8056 42.3155 22.5683C42.3155 17.331 40.235 12.3082 36.5317 8.60487C32.8284 4.90154 27.8056 2.82103 22.5683 2.82103ZM0 22.5683C0 16.5828 2.37772 10.8425 6.61009 6.61009C10.8425 2.37772 16.5828 0 22.5683 0C28.5537 0 34.2941 2.37772 38.5265 6.61009C42.7588 10.8425 45.1365 16.5828 45.1365 22.5683C45.1365 28.5537 42.7588 34.2941 38.5265 38.5265C34.2941 42.7588 28.5537 45.1365 22.5683 45.1365C16.5828 45.1365 10.8425 42.7588 6.61009 38.5265C2.37772 34.2941 0 28.5537 0 22.5683Z" fill="#555555"/>
</svg>
