<svg width="15" height="28" viewBox="0 0 15 28" fill="none" xmlns="http://www.w3.org/2000/svg">
<path d="M13.8064 15.0563L13.8073 15.0552C14.1531 14.6478 14.345 14.1344 14.3482 13.602C14.3799 13.0938 14.2383 12.5905 13.9469 12.171L13.9351 12.1541L13.922 12.1382L5.06222 1.39288C4.86694 1.14463 4.62223 0.938886 4.34367 0.787756C4.06312 0.635544 3.75398 0.541836 3.4356 0.51203C3.11722 0.482223 2.79584 0.516897 2.49144 0.614075C2.19105 0.709969 1.91309 0.864845 1.67475 1.06983C1.43909 1.25673 1.24223 1.4873 1.09576 1.74906C0.947206 2.01453 0.853565 2.30662 0.82067 2.60851C0.787773 2.91041 0.816342 3.2156 0.904579 3.50636C0.992713 3.79679 1.13849 4.06664 1.33296 4.30064C1.33317 4.30089 1.33338 4.30115 1.33359 4.3014L8.99257 13.5791L1.04455 22.8632L1.04455 22.8632L1.04366 22.8642C0.645593 23.3318 0.452405 23.937 0.50998 24.5467C0.567543 25.1563 0.870535 25.7155 1.34789 26.1028C1.82482 26.4899 2.4374 26.6745 3.05095 26.6193C3.66447 26.5641 4.23332 26.273 4.63099 25.806C4.63106 25.8059 4.63113 25.8059 4.6312 25.8058L13.8064 15.0563Z" fill="white" stroke="white"/>
</svg>
