<svg width="35" height="35" viewBox="0 0 35 35" fill="none" xmlns="http://www.w3.org/2000/svg">
<path fill-rule="evenodd" clip-rule="evenodd" d="M2.88474 34.6169C2.88474 34.6169 0 34.6169 0 31.7322C0 28.8474 2.88474 20.1932 17.3085 20.1932C31.7322 20.1932 34.6169 28.8474 34.6169 31.7322C34.6169 34.6169 31.7322 34.6169 31.7322 34.6169H2.88474ZM17.3085 17.3085C19.6037 17.3085 21.805 16.3967 23.4279 14.7737C25.0509 13.1507 25.9627 10.9495 25.9627 8.65423C25.9627 6.35899 25.0509 4.15775 23.4279 2.53477C21.805 0.911783 19.6037 0 17.3085 0C15.0132 0 12.812 0.911783 11.189 2.53477C9.56602 4.15775 8.65423 6.35899 8.65423 8.65423C8.65423 10.9495 9.56602 13.1507 11.189 14.7737C12.812 16.3967 15.0132 17.3085 17.3085 17.3085Z" fill="#555555"/>
</svg>
