<svg width="31" height="31" viewBox="0 0 31 31" fill="none" xmlns="http://www.w3.org/2000/svg">
<rect x="21.2334" width="13.8055" height="5.00439" rx="2.5022" transform="rotate(45.1607 21.2334 0)" fill="#FFBC57"/>
<rect x="20.4336" y="5.24023" width="7.52162" height="7.32632" transform="rotate(45.0307 20.4336 5.24023)" fill="#FFBC57"/>
<path d="M19.3045 24.4813C21.0354 22.7524 22.0222 20.4205 22.0479 17.9984C22.0737 15.5764 21.1362 13.2627 19.4417 11.5663C17.7473 9.86985 15.4346 8.9297 13.0125 8.95265C10.5905 8.97559 8.25739 9.95974 6.52654 11.6886L12.9155 18.0849L19.3045 24.4813Z" fill="#FFBC57"/>
<path d="M7.95619 21.0734C7.466 21.5636 7.466 22.3583 7.95619 22.8485C8.44637 23.3387 9.24113 23.3387 9.73131 22.8485L7.95619 21.0734ZM9.73131 22.8485L14.6207 17.9592L12.8455 16.184L7.95619 21.0734L9.73131 22.8485Z" fill="#FFBC57"/>
</svg>
