<svg width="38" height="38" viewBox="0 0 38 38" fill="none" xmlns="http://www.w3.org/2000/svg">
<rect x="0.324219" y="0.191406" width="37.3097" height="37.3097" rx="4.93451" fill="#D9D9D9"/>
<path d="M8.03418 13.1953V9.55055C8.03418 8.44129 8.98497 7.33203 10.2527 7.33203C11.9007 7.33203 13.4748 7.33203 14.0559 7.33203" stroke="#7B7B7B" stroke-width="1.4553" stroke-linecap="round"/>
<path d="M25.4668 7.17187L29.1116 7.17187C30.2208 7.17187 31.3301 8.12267 31.3301 9.3904C31.3301 11.0384 31.3301 12.6125 31.3301 13.1936" stroke="#7B7B7B" stroke-width="1.4553" stroke-linecap="round"/>
<path d="M31.4883 24.6055L31.4883 28.2502C31.4883 29.3595 30.5375 30.4687 29.2698 30.4687C27.6217 30.4687 26.0476 30.4687 25.4666 30.4687" stroke="#7B7B7B" stroke-width="1.4553" stroke-linecap="round"/>
<path d="M13.8975 30.625L10.2527 30.625C9.14344 30.625 8.03418 29.6742 8.03418 28.4065C8.03418 26.7584 8.03418 25.1843 8.03418 24.6033" stroke="#7B7B7B" stroke-width="1.4553" stroke-linecap="round"/>
<line x1="6.22863" y1="19.12" x2="33.2972" y2="19.12" stroke="#7B7B7B" stroke-width="1.4553" stroke-linecap="round"/>
</svg>
