<svg width="37" height="37" viewBox="0 0 37 37" fill="none" xmlns="http://www.w3.org/2000/svg">
<path fill-rule="evenodd" clip-rule="evenodd" d="M24.017 24.0164C24.2306 23.8025 24.4843 23.6329 24.7635 23.5171C25.0427 23.4014 25.342 23.3418 25.6442 23.3418C25.9465 23.3418 26.2458 23.4014 26.525 23.5171C26.8042 23.6329 27.0579 23.8025 27.2715 24.0164L36.1265 32.8713C36.558 33.3026 36.8006 33.8877 36.8008 34.4978C36.801 35.1079 36.5589 35.6931 36.1276 36.1247C35.6963 36.5563 35.1113 36.7988 34.5012 36.7991C33.8911 36.7993 33.3058 36.5571 32.8743 36.1258L24.0193 27.2709C23.8054 27.0572 23.6358 26.8036 23.52 26.5244C23.4043 26.2451 23.3447 25.9459 23.3447 25.6436C23.3447 25.3413 23.4043 25.0421 23.52 24.7628C23.6358 24.4836 23.8031 24.23 24.017 24.0164Z" fill="#555555"/>
<path fill-rule="evenodd" clip-rule="evenodd" d="M14.95 27.6C16.6112 27.6 18.2562 27.2728 19.7909 26.637C21.3257 26.0013 22.7202 25.0695 23.8949 23.8949C25.0695 22.7202 26.0013 21.3257 26.637 19.7909C27.2728 18.2562 27.6 16.6112 27.6 14.95C27.6 13.2888 27.2728 11.6438 26.637 10.109C26.0013 8.57427 25.0695 7.17975 23.8949 6.00509C22.7202 4.83043 21.3257 3.89864 19.7909 3.26292C18.2562 2.6272 16.6112 2.3 14.95 2.3C11.595 2.3 8.37742 3.63276 6.00509 6.00509C3.63276 8.37742 2.3 11.595 2.3 14.95C2.3 18.305 3.63276 21.5225 6.00509 23.8949C8.37742 26.2672 11.595 27.6 14.95 27.6ZM29.9 14.95C29.9 18.915 28.3249 22.7175 25.5212 25.5212C22.7175 28.3249 18.915 29.9 14.95 29.9C10.985 29.9 7.18241 28.3249 4.37875 25.5212C1.57508 22.7175 0 18.915 0 14.95C0 10.985 1.57508 7.18241 4.37875 4.37875C7.18241 1.57508 10.985 0 14.95 0C18.915 0 22.7175 1.57508 25.5212 4.37875C28.3249 7.18241 29.9 10.985 29.9 14.95Z" fill="#555555"/>
</svg>
