<svg width="27" height="27" viewBox="0 0 27 27" fill="none" xmlns="http://www.w3.org/2000/svg">
<path fill-rule="evenodd" clip-rule="evenodd" d="M13.0657 24.4981C16.0977 24.4981 19.0056 23.2936 21.1496 21.1496C23.2936 19.0056 24.4981 16.0977 24.4981 13.0657C24.4981 10.0336 23.2936 7.1257 21.1496 4.9817C19.0056 2.8377 16.0977 1.63321 13.0657 1.63321C10.0336 1.63321 7.1257 2.8377 4.9817 4.9817C2.8377 7.1257 1.63321 10.0336 1.63321 13.0657C1.63321 16.0977 2.8377 19.0056 4.9817 21.1496C7.1257 23.2936 10.0336 24.4981 13.0657 24.4981ZM13.0657 26.1313C16.5309 26.1313 19.8542 24.7548 22.3045 22.3045C24.7548 19.8542 26.1313 16.5309 26.1313 13.0657C26.1313 9.60044 24.7548 6.27713 22.3045 3.82685C19.8542 1.37656 16.5309 0 13.0657 0C9.60044 0 6.27713 1.37656 3.82685 3.82685C1.37656 6.27713 0 9.60044 0 13.0657C0 16.5309 1.37656 19.8542 3.82685 22.3045C6.27713 24.7548 9.60044 26.1313 13.0657 26.1313Z" fill="#288289"/>
<path fill-rule="evenodd" clip-rule="evenodd" d="M13.066 6.53271C13.2826 6.53271 13.4903 6.61875 13.6435 6.77189C13.7966 6.92504 13.8826 7.13274 13.8826 7.34932V12.2489H18.7823C18.9988 12.2489 19.2066 12.335 19.3597 12.4881C19.5128 12.6413 19.5989 12.849 19.5989 13.0655C19.5989 13.2821 19.5128 13.4898 19.3597 13.643C19.2066 13.7961 18.9988 13.8822 18.7823 13.8822H13.8826V18.7818C13.8826 18.9984 13.7966 19.2061 13.6435 19.3592C13.4903 19.5124 13.2826 19.5984 13.066 19.5984C12.8495 19.5984 12.6418 19.5124 12.4886 19.3592C12.3355 19.2061 12.2494 18.9984 12.2494 18.7818V13.8822H7.34981C7.13323 13.8822 6.92552 13.7961 6.77238 13.643C6.61924 13.4898 6.5332 13.2821 6.5332 13.0655C6.5332 12.849 6.61924 12.6413 6.77238 12.4881C6.92552 12.335 7.13323 12.2489 7.34981 12.2489H12.2494V7.34932C12.2494 7.13274 12.3355 6.92504 12.4886 6.77189C12.6418 6.61875 12.8495 6.53271 13.066 6.53271Z" fill="#288289"/>
</svg>
