<svg width="27" height="34" viewBox="0 0 27 34" fill="none" xmlns="http://www.w3.org/2000/svg">
<path d="M2 3.38V31.44C2 31.9 2.47917 32.36 2.95833 32.36L23.5625 32.36C24.3292 32.36 25 32.36 25 31.44C24.8403 23.62 25 7.98 25 7.52C25 7.06 24.9136 6.66787 24.5208 6.14L22.125 2.92C21.7311 2.39064 21.1667 2 20.2083 2L3.91667 2C2.76667 2 2 2.46 2 3.38Z" stroke="#288289" stroke-width="3"/>
<line x1="9.02002" y1="17.9805" x2="17.98" y2="17.9805" stroke="#288289" stroke-width="3" stroke-linecap="round"/>
<line x1="13.5" y1="13.5" x2="13.5" y2="23.38" stroke="#288289" stroke-width="3" stroke-linecap="round"/>
<path d="M2 3.38V31.44C2 31.9 2.47917 32.36 2.95833 32.36L23.5625 32.36C24.3292 32.36 25 32.36 25 31.44C24.8403 23.62 25 7.98 25 7.52C25 7.06 24.9136 6.66787 24.5208 6.14L22.125 2.92C21.7311 2.39064 21.1667 2 20.2083 2L3.91667 2C2.76667 2 2 2.46 2 3.38Z" stroke="#288289" stroke-width="3"/>
<line x1="9.02002" y1="17.9805" x2="17.98" y2="17.9805" stroke="#288289" stroke-width="3" stroke-linecap="round"/>
</svg>
