<svg width="78" height="78" viewBox="0 0 78 78" fill="none" xmlns="http://www.w3.org/2000/svg">
<g filter="url(#filter0_d_443_20)">
<rect x="4" width="70" height="70" rx="10" fill="#288289"/>
</g>
<path fill-rule="evenodd" clip-rule="evenodd" d="M16.8333 58C16.8333 58 13 58 13 54.1667C13 50.3333 16.8333 38.8333 36 38.8333C55.1667 38.8333 59 50.3333 59 54.1667C59 58 55.1667 58 55.1667 58H16.8333ZM36 35C39.05 35 41.9751 33.7884 44.1317 31.6317C46.2884 29.4751 47.5 26.55 47.5 23.5C47.5 20.45 46.2884 17.5249 44.1317 15.3683C41.9751 13.2116 39.05 12 36 12C32.95 12 30.0249 13.2116 27.8683 15.3683C25.7116 17.5249 24.5 20.45 24.5 23.5C24.5 26.55 25.7116 29.4751 27.8683 31.6317C30.0249 33.7884 32.95 35 36 35Z" fill="white"/>
<line x1="53.5" y1="17.5" x2="63.5" y2="17.5" stroke="white" stroke-width="5" stroke-linecap="round"/>
<line x1="58.5" y1="12.5" x2="58.5" y2="22.5" stroke="white" stroke-width="5" stroke-linecap="round"/>
<defs>
<filter id="filter0_d_443_20" x="0" y="0" width="78" height="78" filterUnits="userSpaceOnUse" color-interpolation-filters="sRGB">
<feFlood flood-opacity="0" result="BackgroundImageFix"/>
<feColorMatrix in="SourceAlpha" type="matrix" values="0 0 0 0 0 0 0 0 0 0 0 0 0 0 0 0 0 0 127 0" result="hardAlpha"/>
<feOffset dy="4"/>
<feGaussianBlur stdDeviation="2"/>
<feComposite in2="hardAlpha" operator="out"/>
<feColorMatrix type="matrix" values="0 0 0 0 0 0 0 0 0 0 0 0 0 0 0 0 0 0 0.25 0"/>
<feBlend mode="normal" in2="BackgroundImageFix" result="effect1_dropShadow_443_20"/>
<feBlend mode="normal" in="SourceGraphic" in2="effect1_dropShadow_443_20" result="shape"/>
</filter>
</defs>
</svg>
