<svg width="80" height="80" viewBox="0 0 80 80" fill="none" xmlns="http://www.w3.org/2000/svg">
<path d="M63.3333 36.6682H23.8L35.9 22.1349C36.4658 21.4542 36.738 20.5766 36.6567 19.6952C36.5754 18.8137 36.1474 18.0007 35.4666 17.4349C34.7859 16.8691 33.9083 16.5969 33.0269 16.6782C32.1455 16.7594 31.3324 17.1875 30.7666 17.8682L14.1 37.8682C13.9878 38.0273 13.8876 38.1944 13.8 38.3682C13.8 38.5349 13.8 38.6349 13.5666 38.8016C13.4155 39.1838 13.3364 39.5906 13.3333 40.0016C13.3364 40.4125 13.4155 40.8194 13.5666 41.2016C13.5666 41.3682 13.5666 41.4682 13.8 41.6349C13.8876 41.8087 13.9878 41.9758 14.1 42.1349L30.7666 62.1349C31.08 62.5112 31.4725 62.8138 31.9161 63.0212C32.3597 63.2286 32.8436 63.3357 33.3333 63.3349C34.1121 63.3364 34.8669 63.0652 35.4666 62.5682C35.8042 62.2884 36.0832 61.9447 36.2877 61.5569C36.4922 61.1691 36.6182 60.7447 36.6584 60.3081C36.6987 59.8716 36.6524 59.4313 36.5223 59.0126C36.3921 58.594 36.1806 58.2051 35.9 57.8682L23.8 43.3349H63.3333C64.2174 43.3349 65.0652 42.9837 65.6903 42.3586C66.3154 41.7335 66.6666 40.8856 66.6666 40.0016C66.6666 39.1175 66.3154 38.2697 65.6903 37.6445C65.0652 37.0194 64.2174 36.6682 63.3333 36.6682Z" fill="#288289"/>
</svg>
