<svg width="44" height="44" viewBox="0 0 44 44" fill="none" xmlns="http://www.w3.org/2000/svg">
<path d="M32.1667 7.2H30.5556V5.6C30.5556 5.17565 30.3858 4.76869 30.0837 4.46863C29.7815 4.16857 29.3717 4 28.9444 4C28.5172 4 28.1074 4.16857 27.8052 4.46863C27.5031 4.76869 27.3333 5.17565 27.3333 5.6V7.2H17.6667V5.6C17.6667 5.17565 17.4969 4.76869 17.1948 4.46863C16.8926 4.16857 16.4828 4 16.0556 4C15.6283 4 15.2185 4.16857 14.9163 4.46863C14.6142 4.76869 14.4444 5.17565 14.4444 5.6V7.2H12.8333C11.5515 7.2 10.3221 7.70571 9.41565 8.60589C8.50922 9.50606 8 10.727 8 12V31.2C8 32.473 8.50922 33.6939 9.41565 34.5941C10.3221 35.4943 11.5515 36 12.8333 36H32.1667C33.4485 36 34.6779 35.4943 35.5844 34.5941C36.4908 33.6939 37 32.473 37 31.2V12C37 10.727 36.4908 9.50606 35.5844 8.60589C34.6779 7.70571 33.4485 7.2 32.1667 7.2ZM16.0556 28C15.7369 28 15.4254 27.9062 15.1605 27.7304C14.8955 27.5545 14.689 27.3047 14.5671 27.0123C14.4451 26.7199 14.4132 26.3982 14.4754 26.0879C14.5376 25.7775 14.691 25.4924 14.9163 25.2686C15.1416 25.0449 15.4287 24.8925 15.7412 24.8307C16.0538 24.769 16.3777 24.8007 16.6721 24.9218C16.9665 25.0429 17.2181 25.248 17.3951 25.5111C17.5722 25.7742 17.6667 26.0835 17.6667 26.4C17.6667 26.8243 17.4969 27.2313 17.1948 27.5314C16.8926 27.8314 16.4828 28 16.0556 28ZM28.9444 28H22.5C22.0727 28 21.6629 27.8314 21.3608 27.5314C21.0586 27.2313 20.8889 26.8243 20.8889 26.4C20.8889 25.9757 21.0586 25.5687 21.3608 25.2686C21.6629 24.9686 22.0727 24.8 22.5 24.8H28.9444C29.3717 24.8 29.7815 24.9686 30.0837 25.2686C30.3858 25.5687 30.5556 25.9757 30.5556 26.4C30.5556 26.8243 30.3858 27.2313 30.0837 27.5314C29.7815 27.8314 29.3717 28 28.9444 28ZM33.7778 18.4H11.2222V12C11.2222 11.5757 11.392 11.1687 11.6941 10.8686C11.9962 10.5686 12.406 10.4 12.8333 10.4H14.4444V12C14.4444 12.4243 14.6142 12.8313 14.9163 13.1314C15.2185 13.4314 15.6283 13.6 16.0556 13.6C16.4828 13.6 16.8926 13.4314 17.1948 13.1314C17.4969 12.8313 17.6667 12.4243 17.6667 12V10.4H27.3333V12C27.3333 12.4243 27.5031 12.8313 27.8052 13.1314C28.1074 13.4314 28.5172 13.6 28.9444 13.6C29.3717 13.6 29.7815 13.4314 30.0837 13.1314C30.3858 12.8313 30.5556 12.4243 30.5556 12V10.4H32.1667C32.594 10.4 33.0038 10.5686 33.3059 10.8686C33.608 11.1687 33.7778 11.5757 33.7778 12V18.4Z" fill="#288289"/>
</svg>
