<svg width="41" height="40" viewBox="0 0 41 40" fill="none" xmlns="http://www.w3.org/2000/svg">
<path d="M20.0573 25.8333C21.438 25.8333 22.5573 24.714 22.5573 23.3333C22.5573 21.9525 21.438 20.8333 20.0573 20.8333C18.6765 20.8333 17.5573 21.9525 17.5573 23.3333C17.5573 24.714 18.6765 25.8333 20.0573 25.8333Z" fill="#288289"/>
<path d="M31.7238 11.6667H26.7238V9.16667C26.7238 8.0616 26.2848 7.00179 25.5034 6.22039C24.722 5.43899 23.6622 5 22.5572 5H17.5572C16.4521 5 15.3923 5.43899 14.6109 6.22039C13.8295 7.00179 13.3905 8.0616 13.3905 9.16667V11.6667H8.3905C7.06442 11.6667 5.79265 12.1935 4.85497 13.1311C3.91729 14.0688 3.3905 15.3406 3.3905 16.6667V30C3.3905 31.3261 3.91729 32.5979 4.85497 33.5355C5.79265 34.4732 7.06442 35 8.3905 35H31.7238C33.0499 35 34.3217 34.4732 35.2594 33.5355C36.1971 32.5979 36.7238 31.3261 36.7238 30V16.6667C36.7238 15.3406 36.1971 14.0688 35.2594 13.1311C34.3217 12.1935 33.0499 11.6667 31.7238 11.6667ZM16.7238 9.16667C16.7238 8.94565 16.8116 8.73369 16.9679 8.57741C17.1242 8.42113 17.3362 8.33333 17.5572 8.33333H22.5572C22.7782 8.33333 22.9901 8.42113 23.1464 8.57741C23.3027 8.73369 23.3905 8.94565 23.3905 9.16667V11.6667H16.7238V9.16667ZM20.0572 29.1667C18.9034 29.1667 17.7756 28.8245 16.8163 28.1836C15.8571 27.5426 15.1094 26.6316 14.6679 25.5657C14.2264 24.4998 14.1108 23.3269 14.3359 22.1953C14.561 21.0637 15.1166 20.0244 15.9324 19.2085C16.7482 18.3927 17.7876 17.8372 18.9191 17.6121C20.0507 17.387 21.2236 17.5025 22.2895 17.944C23.3554 18.3855 24.2664 19.1332 24.9074 20.0925C25.5484 21.0518 25.8905 22.1796 25.8905 23.3333C25.8905 24.8804 25.2759 26.3642 24.182 27.4581C23.088 28.5521 21.6043 29.1667 20.0572 29.1667Z" fill="#288289"/>
</svg>
