<svg width="27" height="27" viewBox="0 0 27 27" fill="none" xmlns="http://www.w3.org/2000/svg">
<rect width="27" height="27" rx="3.46312" fill="#D9D9D9"/>
<path d="M9.675 6.1C9.06 8.725 7.92 11.275 6.42 12.775C6.915 13.045 7.8 13.645 8.19 13.99C9.66 12.25 10.95 9.445 11.715 6.52L9.675 6.1ZM18.15 8.695V9.04C17.805 10.555 17.145 12.385 16.53 13.51L18.18 14.2C18.975 12.865 19.74 10.93 20.28 9.085L18.81 8.605L18.48 8.695H18.15ZM10.185 8.695L9.285 10.465H18.795V8.695H10.185ZM13.47 10.27H12.405V12.22C12.405 14.155 11.025 17.335 6.495 18.745C6.885 19.105 7.53 19.93 7.74 20.35C11.205 19.045 13.035 16.435 13.47 15.07C13.875 16.45 15.69 19.105 19.17 20.335C19.455 19.87 20.055 19.03 20.445 18.61C15.765 17.185 14.505 14.11 14.505 12.19V10.27H13.47Z" fill="white"/>
</svg>
