<svg width="27" height="27" viewBox="0 0 27 27" fill="none" xmlns="http://www.w3.org/2000/svg">
<rect width="27" height="27" rx="3.46312" fill="#D9D9D9"/>
<path d="M20.816 10.9502H5.4353C5.19589 10.9502 5 10.7831 5 10.5789V9.46512C5 8.64525 5.77992 7.98007 6.74121 7.98007H8.48242V6.37126C8.48242 6.16707 8.67831 6 8.91773 6H10.3687C10.6082 6 10.804 6.16707 10.804 6.37126V7.98007H15.4473V6.37126C15.4473 6.16707 15.6432 6 15.8826 6H17.3336C17.573 6 17.7689 6.16707 17.7689 6.37126V7.98007H19.5101C20.4714 7.98007 21.2513 8.64525 21.2513 9.46512V10.5789C21.2513 10.7831 21.0554 10.9502 20.816 10.9502ZM5.4353 11.9402H20.816C21.0554 11.9402 21.2513 12.1073 21.2513 12.3115V20.3555C21.2513 21.1754 20.4714 21.8405 19.5101 21.8405H6.74121C5.77992 21.8405 5 21.1754 5 20.3555V12.3115C5 12.1073 5.19589 11.9402 5.4353 11.9402ZM14.7689 16.8904L16.5138 15.4022C16.6843 15.2568 16.6843 15.0217 16.5138 14.8763L15.4872 14.0007C15.3167 13.8553 15.041 13.8553 14.8705 14.0007L13.1257 15.4889L11.3808 14.0007C11.2103 13.8553 10.9346 13.8553 10.7641 14.0007L9.73755 14.8763C9.56705 15.0217 9.56705 15.2568 9.73755 15.4022L11.4824 16.8904L9.73755 18.3785C9.56705 18.5239 9.56705 18.7591 9.73755 18.9045L10.7641 19.78C10.9346 19.9254 11.2103 19.9254 11.3808 19.78L13.1257 18.2919L14.8705 19.78C15.041 19.9254 15.3167 19.9254 15.4872 19.78L16.5138 18.9045C16.6843 18.7591 16.6843 18.5239 16.5138 18.3785L14.7689 16.8904Z" fill="white"/>
</svg>
