<svg width="27" height="27" viewBox="0 0 27 27" fill="none" xmlns="http://www.w3.org/2000/svg">
<rect width="27" height="27" rx="3.46312" fill="#D9D9D9"/>
<path d="M6.81 12.22V14.005H20.25V12.22H6.81ZM7.935 8.515V10.3H19.155V8.515H7.935ZM12.525 6.265V20.35H14.43V6.265H12.525ZM12.21 13.255C10.98 15.19 8.61 17.14 6.3 18.145C6.72 18.52 7.32 19.24 7.62 19.69C9.99 18.46 12.33 16.285 13.77 13.9L12.21 13.255ZM14.76 13.27L13.26 13.9C14.7 16.27 16.995 18.49 19.32 19.72C19.62 19.24 20.22 18.505 20.64 18.145C18.345 17.155 15.975 15.205 14.76 13.27Z" fill="white"/>
</svg>
