<svg width="28" height="27" viewBox="0 0 28 27" fill="none" xmlns="http://www.w3.org/2000/svg">
<rect x="0.130127" width="27" height="27" rx="3.46312" fill="#D9D9D9"/>
<path d="M13.4551 23.1431C14.7362 23.1431 15.7754 22.064 15.7754 20.7324H11.1348C11.1348 22.064 12.174 23.1431 13.4551 23.1431ZM21.2678 17.5039C20.567 16.722 19.2558 15.5456 19.2558 11.6922C19.2558 8.76549 17.2797 6.42257 14.6151 5.84777V5.06278C14.6151 4.3972 14.0957 3.85742 13.4551 3.85742C12.8145 3.85742 12.2951 4.3972 12.2951 5.06278V5.84777C9.63055 6.42257 7.65443 8.76549 7.65443 11.6922C7.65443 15.5456 6.34319 16.722 5.64241 17.5039C5.42477 17.7469 5.32829 18.0373 5.3301 18.3217C5.33409 18.9395 5.80092 19.5271 6.49444 19.5271H20.4158C21.1093 19.5271 21.5765 18.9395 21.5801 18.3217C21.5819 18.0373 21.4854 17.7465 21.2678 17.5039Z" fill="white"/>
</svg>
