<svg width="30" height="30" viewBox="0 0 30 30" fill="none" xmlns="http://www.w3.org/2000/svg">
<path d="M7.50022 11.2499C7.79229 11.2493 8.07533 11.3511 8.30022 11.5374L15.0002 17.1374L21.7127 11.7374C21.8406 11.6336 21.9877 11.556 22.1456 11.5093C22.3036 11.4625 22.4692 11.4474 22.633 11.4648C22.7967 11.4822 22.9555 11.5318 23.1 11.6108C23.2446 11.6898 23.3721 11.7965 23.4752 11.9249C23.5791 12.0528 23.6566 12.1999 23.7034 12.3578C23.7502 12.5157 23.7653 12.6814 23.7479 12.8451C23.7304 13.0089 23.6808 13.1677 23.6019 13.3122C23.5229 13.4568 23.4161 13.5843 23.2877 13.6874L15.7877 19.7249C15.5641 19.9088 15.2835 20.0093 14.994 20.0093C14.7044 20.0093 14.4239 19.9088 14.2002 19.7249L6.70023 13.4749C6.57365 13.37 6.46902 13.2411 6.39233 13.0957C6.31564 12.9502 6.2684 12.7911 6.2533 12.6274C6.23821 12.4637 6.25556 12.2986 6.30437 12.1416C6.35317 11.9846 6.43247 11.8387 6.53772 11.7124C6.65404 11.569 6.80068 11.4532 6.9671 11.3732C7.13352 11.2932 7.31559 11.2511 7.50022 11.2499Z" fill="white"/>
</svg>
