<svg width="34" height="34" viewBox="0 0 34 34" fill="none" xmlns="http://www.w3.org/2000/svg">
<path d="M32.0921 6.838L26.3838 1.12967C25.6387 0.429868 24.6625 0.0283324 23.6407 0.00144325C22.6189 -0.0254459 21.6229 0.324188 20.8421 0.983835L2.09209 19.7338C1.41868 20.4129 0.99939 21.303 0.904589 22.2547L0.00875615 30.9422C-0.0193085 31.2473 0.020286 31.5549 0.124717 31.843C0.229148 32.1311 0.395844 32.3926 0.612923 32.6088C0.80759 32.8019 1.03846 32.9547 1.29228 33.0584C1.54611 33.162 1.81791 33.2146 2.09209 33.213H2.27959L10.9671 32.4213C11.9187 32.3265 12.8088 31.9072 13.4879 31.2338L32.2379 12.4838C32.9657 11.715 33.359 10.6891 33.3316 9.63078C33.3043 8.57251 32.8586 7.56822 32.0921 6.838ZM10.5921 28.2547L4.34209 28.838L4.90459 22.588L16.6754 10.963L22.3004 16.588L10.5921 28.2547ZM25.0088 13.7963L19.4254 8.213L23.4879 4.04633L29.1754 9.73383L25.0088 13.7963Z" fill="#288289"/>
</svg>
