<svg width="50" height="50" viewBox="0 0 50 50" fill="none" xmlns="http://www.w3.org/2000/svg">
<path d="M39.5833 8.33398H10.4166C8.75902 8.33398 7.16931 8.99246 5.99721 10.1646C4.82511 11.3367 4.16663 12.9264 4.16663 14.584V35.4173C4.16663 37.0749 4.82511 38.6646 5.99721 39.8367C7.16931 41.0088 8.75902 41.6673 10.4166 41.6673H39.5833C41.2409 41.6673 42.8306 41.0088 44.0027 39.8367C45.1748 38.6646 45.8333 37.0749 45.8333 35.4173V14.584C45.8333 12.9264 45.1748 11.3367 44.0027 10.1646C42.8306 8.99246 41.2409 8.33398 39.5833 8.33398ZM38.1875 12.5007L25 22.3965L11.8125 12.5007H38.1875ZM39.5833 37.5007H10.4166C9.86409 37.5007 9.33419 37.2812 8.94349 36.8905C8.55279 36.4998 8.33329 35.9699 8.33329 35.4173V15.1048L23.75 26.6673C24.1106 26.9378 24.5492 27.084 25 27.084C25.4507 27.084 25.8893 26.9378 26.25 26.6673L41.6666 15.1048V35.4173C41.6666 35.9699 41.4471 36.4998 41.0564 36.8905C40.6657 37.2812 40.1358 37.5007 39.5833 37.5007Z" fill="#454545"/>
</svg>
