<svg width="40" height="40" viewBox="0 0 40 40" fill="none" xmlns="http://www.w3.org/2000/svg">
<rect x="12.6109" y="25.4009" width="14.6512" height="12.6304" rx="2.02086" stroke="#288289" stroke-width="3.03129"/>
<path d="M37.3651 34.2675V20.4283C37.3651 18.4831 36.5639 16.6236 35.15 15.2875L22.1116 2.96613C20.7484 1.67796 18.6166 1.67796 17.2535 2.96613L4.215 15.2875C2.80116 16.6236 2 18.4831 2 20.4283V34.2675C2 36.2208 3.58335 37.8041 5.53651 37.8041H33.8286C35.7818 37.8041 37.3651 36.2208 37.3651 34.2675Z" stroke="#288289" stroke-width="3.53651" stroke-linecap="round" stroke-linejoin="round"/>
<path d="M37.3651 34.2675V20.4283C37.3651 18.4831 36.5639 16.6236 35.15 15.2875L22.1116 2.96613C20.7484 1.67796 18.6166 1.67796 17.2535 2.96613L4.215 15.2875C2.80116 16.6236 2 18.4831 2 20.4283V34.2675C2 36.2208 3.58335 37.8041 5.53651 37.8041H33.8286C35.7818 37.8041 37.3651 36.2208 37.3651 34.2675Z" stroke="#288289" stroke-width="3.53651" stroke-linecap="round" stroke-linejoin="round"/>
</svg>
