<svg width="775" height="775" viewBox="0 0 775 775" fill="none" xmlns="http://www.w3.org/2000/svg">
<rect width="775" height="775" fill="white"/>
<path d="M212.666 465.787H164.549V483.76H212.666V465.787Z" fill="black"/>
<path d="M73.2203 554.607L76.7776 555.468C76.0287 558.314 74.6806 560.486 72.7709 561.984C70.8238 563.481 68.4648 564.23 65.6564 564.23C62.848 564.23 60.4141 563.669 58.5793 562.508C56.7819 561.347 55.3965 559.699 54.4229 557.528C53.4868 555.356 53 552.997 53 550.525C53 547.792 53.5242 545.433 54.6101 543.373C55.696 541.351 57.1938 539.816 59.1784 538.73C61.163 537.644 63.3348 537.157 65.6938 537.157C68.3899 537.157 70.6366 537.831 72.4714 539.142C74.3062 540.453 75.5793 542.362 76.2908 544.759L72.8084 545.545C72.1718 543.635 71.2731 542.25 70.1124 541.389C68.9141 540.528 67.4538 540.078 65.6564 540.078C63.5969 540.078 61.8745 540.565 60.489 541.539C59.1035 542.512 58.13 543.785 57.5683 545.433C57.0066 547.08 56.7071 548.728 56.7071 550.45C56.7071 552.66 57.0441 554.607 57.7181 556.292C58.3921 557.977 59.4031 559.175 60.826 559.999C62.2489 560.823 63.7467 561.235 65.3943 561.235C67.3789 561.235 69.0639 560.673 70.4494 559.55C71.8348 558.426 72.7709 556.779 73.2577 554.569L73.2203 554.607Z" fill="black"/>
<path d="M83.856 563.78V537.606H87.4132V560.71H100.631V563.78H83.856Z" fill="black"/>
<path d="M106.584 551.05C106.584 546.706 107.782 543.298 110.179 540.827C112.575 538.356 115.683 537.157 119.465 537.157C121.936 537.157 124.183 537.719 126.168 538.88C128.152 540.041 129.688 541.651 130.736 543.71C131.784 545.77 132.309 548.129 132.309 550.75C132.309 553.371 131.747 555.768 130.661 557.865C129.575 559.961 128.003 561.534 125.98 562.62C123.958 563.706 121.787 564.23 119.465 564.23C116.919 564.23 114.672 563.631 112.688 562.433C110.703 561.235 109.205 559.624 108.157 557.565C107.146 555.505 106.621 553.334 106.621 551.012L106.584 551.05ZM110.254 551.087C110.254 554.232 111.115 556.741 112.875 558.539C114.597 560.336 116.806 561.272 119.428 561.272C122.049 561.272 124.295 560.336 126.018 558.539C127.74 556.704 128.602 554.12 128.602 550.75C128.602 548.616 128.227 546.743 127.478 545.171C126.729 543.598 125.643 542.362 124.221 541.464C122.798 540.602 121.188 540.153 119.428 540.153C116.919 540.153 114.747 540.977 112.95 542.662C111.152 544.347 110.216 547.155 110.216 551.087H110.254Z" fill="black"/>
<path d="M157.321 537.606H160.879V552.734C160.879 555.355 160.579 557.452 159.98 558.987C159.381 560.523 158.258 561.796 156.685 562.769C155.075 563.743 153.015 564.23 150.394 564.23C147.773 564.23 145.826 563.818 144.216 562.956C142.606 562.095 141.482 560.897 140.771 559.287C140.097 557.677 139.76 555.505 139.76 552.734V537.606H143.317V552.697C143.317 554.981 143.542 556.628 143.954 557.714C144.403 558.8 145.114 559.624 146.2 560.223C147.249 560.822 148.559 561.084 150.095 561.084C152.716 561.084 154.588 560.523 155.674 559.362C156.76 558.201 157.359 555.992 157.359 552.697V537.606H157.321Z" fill="black"/>
<path d="M169.604 563.78V537.606H178.853C180.95 537.606 182.523 537.719 183.646 537.981C185.182 538.318 186.492 538.954 187.578 539.853C189.001 541.014 190.049 542.512 190.761 544.309C191.472 546.106 191.809 548.203 191.809 550.525C191.809 552.509 191.585 554.269 191.098 555.804C190.611 557.34 190.012 558.613 189.263 559.624C188.514 560.635 187.69 561.421 186.829 561.983C185.931 562.545 184.882 562.994 183.609 563.293C182.373 563.593 180.913 563.743 179.303 563.743H169.604V563.78ZM173.162 560.71H178.891C180.651 560.71 182.036 560.56 183.047 560.223C184.058 559.886 184.845 559.437 185.444 558.875C186.305 558.051 186.942 556.965 187.428 555.58C187.915 554.194 188.14 552.509 188.14 550.525C188.14 547.791 187.69 545.694 186.754 544.197C185.818 542.736 184.695 541.725 183.384 541.238C182.448 540.864 180.913 540.714 178.779 540.714H173.124V560.71H173.162Z" fill="black"/>
<path d="M213.377 563.78V537.606H216.934V563.78H213.377Z" fill="black"/>
<path d="M225.958 563.78V537.606H229.591L243.707 558.164V537.606H247.115V563.78H243.483L229.366 543.223V563.78H225.958Z" fill="black"/>
<path d="M256.102 563.78V537.606H274.225V540.677H259.659V548.802H272.278V551.873H259.659V563.78H256.102Z" fill="black"/>
<path d="M280.59 551.05C280.59 546.706 281.788 543.298 284.185 540.827C286.581 538.356 289.689 537.157 293.471 537.157C295.942 537.157 298.189 537.719 300.174 538.88C302.158 540.041 303.693 541.651 304.742 543.71C305.79 545.77 306.315 548.129 306.315 550.75C306.315 553.371 305.753 555.768 304.667 557.865C303.581 559.961 302.008 561.534 299.986 562.62C297.964 563.706 295.793 564.23 293.471 564.23C290.925 564.23 288.678 563.631 286.693 562.433C284.709 561.235 283.211 559.624 282.163 557.565C281.152 555.505 280.627 553.334 280.627 551.012L280.59 551.05ZM284.259 551.087C284.259 554.232 285.121 556.741 286.881 558.539C288.603 560.336 290.812 561.272 293.433 561.272C296.055 561.272 298.301 560.336 300.024 558.539C301.746 556.704 302.607 554.12 302.607 550.75C302.607 548.616 302.233 546.743 301.484 545.171C300.735 543.598 299.649 542.362 298.226 541.464C296.804 540.602 295.193 540.153 293.433 540.153C290.925 540.153 288.753 540.977 286.955 542.662C285.158 544.347 284.222 547.155 284.222 551.087H284.259Z" fill="black"/>
<path d="M313.729 563.78V537.606H325.637C328.033 537.606 329.868 537.831 331.103 538.318C332.339 538.804 333.35 539.628 334.099 540.826C334.848 542.025 335.222 543.335 335.222 544.758C335.222 546.63 334.623 548.166 333.388 549.439C332.152 550.712 330.242 551.536 327.659 551.873C328.595 552.322 329.306 552.734 329.793 553.183C330.841 554.119 331.815 555.28 332.751 556.666L337.432 563.78H332.976L329.418 558.351C328.37 556.778 327.509 555.58 326.835 554.756C326.161 553.932 325.562 553.333 325.037 552.996C324.513 552.659 323.951 552.434 323.427 552.285C323.015 552.21 322.379 552.172 321.443 552.172H317.324V563.78H313.766H313.729ZM317.286 549.139H324.925C326.535 549.139 327.808 548.99 328.744 548.653C329.643 548.316 330.355 547.791 330.841 547.08C331.328 546.368 331.553 545.582 331.553 544.721C331.553 543.485 331.103 542.474 330.167 541.65C329.231 540.864 327.771 540.452 325.786 540.452H317.286V549.102V549.139Z" fill="black"/>
<path d="M343.497 563.78V537.606H348.852L355.218 556.142C355.817 557.864 356.229 559.175 356.491 559.998C356.79 559.062 357.277 557.639 357.914 555.804L364.354 537.606H369.147V563.78H365.702V541.875L357.914 563.78H354.693L346.905 541.501V563.78H343.46H343.497Z" fill="black"/>
<path d="M374.727 563.78L385.062 537.606H388.881L399.89 563.78H395.846L392.701 555.842H381.467L378.509 563.78H374.727ZM382.478 553.034H391.577L388.769 545.769C387.908 543.56 387.271 541.763 386.859 540.34C386.522 542.025 386.035 543.672 385.399 545.357L382.441 553.034H382.478Z" fill="black"/>
<path d="M409.589 563.78V540.677H400.752V537.606H422.058V540.677H413.184V563.78H409.626H409.589Z" fill="black"/>
<path d="M429.097 563.78V537.606H432.654V563.78H429.097Z" fill="black"/>
<path d="M440.667 551.05C440.667 546.706 441.865 543.298 444.262 540.827C446.658 538.356 449.766 537.157 453.548 537.157C456.019 537.157 458.266 537.719 460.251 538.88C462.235 540.041 463.771 541.651 464.819 543.71C465.867 545.77 466.392 548.129 466.392 550.75C466.392 553.371 465.83 555.768 464.744 557.865C463.658 559.961 462.086 561.534 460.063 562.62C458.041 563.706 455.87 564.23 453.548 564.23C451.002 564.23 448.755 563.631 446.771 562.433C444.786 561.235 443.288 559.624 442.24 557.565C441.229 555.505 440.704 553.334 440.704 551.012L440.667 551.05ZM444.337 551.087C444.337 554.232 445.198 556.741 446.958 558.539C448.68 560.336 450.889 561.272 453.511 561.272C456.132 561.272 458.378 560.336 460.101 558.539C461.823 556.704 462.685 554.12 462.685 550.75C462.685 548.616 462.31 546.743 461.561 545.171C460.812 543.598 459.727 542.362 458.304 541.464C456.881 540.602 455.271 540.153 453.511 540.153C451.002 540.153 448.83 540.977 447.033 542.662C445.235 544.347 444.299 547.155 444.299 551.087H444.337Z" fill="black"/>
<path d="M473.694 563.78V537.606H477.327L491.443 558.164V537.606H494.851V563.78H491.219L477.102 543.223V563.78H473.694Z" fill="black"/>
<path d="M515.707 555.356L519.077 555.056C519.227 556.367 519.601 557.452 520.2 558.276C520.8 559.1 521.698 559.812 522.896 560.298C524.132 560.823 525.48 561.085 527.015 561.085C528.363 561.085 529.562 560.897 530.61 560.486C531.659 560.074 532.408 559.549 532.932 558.875C533.456 558.201 533.681 557.452 533.681 556.629C533.681 555.805 533.419 555.093 532.932 554.494C532.445 553.895 531.621 553.371 530.498 552.959C529.786 552.697 528.176 552.248 525.705 551.686C523.233 551.124 521.511 550.563 520.5 550.038C519.227 549.402 518.253 548.578 517.617 547.604C516.98 546.631 516.681 545.545 516.681 544.347C516.681 543.036 517.055 541.801 517.841 540.64C518.628 539.479 519.751 538.618 521.211 538.019C522.672 537.419 524.319 537.12 526.154 537.12C528.139 537.12 529.899 537.419 531.434 538.056C532.969 538.693 534.13 539.591 534.954 540.827C535.778 542.025 536.227 543.411 536.264 544.946L532.857 545.208C532.67 543.56 532.07 542.287 530.985 541.463C529.899 540.64 528.363 540.19 526.304 540.19C524.244 540.19 522.597 540.565 521.586 541.351C520.612 542.137 520.126 543.036 520.126 544.122C520.126 545.058 520.463 545.845 521.174 546.444C521.848 547.043 523.645 547.679 526.529 548.316C529.412 548.952 531.396 549.514 532.482 550.001C534.055 550.712 535.216 551.611 535.965 552.66C536.714 553.745 537.088 554.981 537.088 556.367C537.088 557.752 536.676 559.063 535.852 560.298C535.029 561.534 533.868 562.508 532.333 563.182C530.797 563.856 529.075 564.193 527.165 564.193C524.731 564.193 522.709 563.856 521.062 563.144C519.414 562.433 518.141 561.422 517.205 560.036C516.269 558.651 515.782 557.078 515.744 555.318L515.707 555.356Z" fill="black"/>
<path d="M544.84 563.78V537.606H564.274V540.677H548.398V548.69H563.263V551.76H548.398V560.672H564.911V563.743H544.878L544.84 563.78Z" fill="black"/>
<path d="M572.661 563.78V537.606H584.568C586.965 537.606 588.799 537.831 590.035 538.318C591.271 538.804 592.282 539.628 593.031 540.826C593.78 542.025 594.154 543.335 594.154 544.758C594.154 546.63 593.555 548.166 592.319 549.439C591.084 550.712 589.174 551.536 586.59 551.873C587.526 552.322 588.238 552.734 588.725 553.183C589.773 554.119 590.747 555.28 591.683 556.666L596.363 563.78H591.907L588.35 558.351C587.302 556.778 586.44 555.58 585.766 554.756C585.092 553.932 584.493 553.333 583.969 552.996C583.445 552.659 582.883 552.434 582.359 552.285C581.947 552.21 581.31 552.172 580.374 552.172H576.255V563.78H572.698H572.661ZM576.218 549.139H583.857C585.467 549.139 586.74 548.99 587.676 548.653C588.575 548.316 589.286 547.791 589.773 547.08C590.26 546.368 590.484 545.582 590.484 544.721C590.484 543.485 590.035 542.474 589.099 541.65C588.163 540.864 586.703 540.452 584.718 540.452H576.218V549.102V549.139Z" fill="black"/>
<path d="M609.545 563.78L599.135 537.606H602.992L609.957 556.628C610.519 558.163 611.005 559.586 611.38 560.897C611.792 559.474 612.278 558.051 612.84 556.628L620.104 537.606H623.737L613.215 563.78H609.582H609.545Z" fill="black"/>
<path d="M630.327 563.78V537.606H633.884V563.78H630.327Z" fill="black"/>
<path d="M662.117 554.607L665.675 555.468C664.926 558.314 663.578 560.486 661.668 561.984C659.721 563.481 657.362 564.23 654.553 564.23C651.745 564.23 649.311 563.669 647.476 562.508C645.679 561.347 644.293 559.699 643.32 557.528C642.384 555.356 641.897 552.997 641.897 550.525C641.897 547.792 642.421 545.433 643.507 543.373C644.593 541.351 646.091 539.816 648.075 538.73C650.06 537.644 652.232 537.157 654.591 537.157C657.287 537.157 659.534 537.831 661.368 539.142C663.203 540.453 664.476 542.362 665.188 544.759L661.705 545.545C661.069 543.635 660.17 542.25 659.009 541.389C657.811 540.528 656.351 540.078 654.553 540.078C652.494 540.078 650.771 540.565 649.386 541.539C648.001 542.512 647.027 543.785 646.465 545.433C645.904 547.08 645.604 548.728 645.604 550.45C645.604 552.66 645.941 554.607 646.615 556.292C647.289 557.977 648.3 559.175 649.723 559.999C651.146 560.823 652.644 561.235 654.291 561.235C656.276 561.235 657.961 560.673 659.346 559.55C660.732 558.426 661.668 556.779 662.155 554.569L662.117 554.607Z" fill="black"/>
<path d="M672.939 563.78V537.606H692.373V540.677H676.497V548.69H691.362V551.76H676.497V560.672H693.01V563.743H672.977L672.939 563.78Z" fill="black"/>
<path d="M215.135 536.858C217.658 536.858 219.703 534.812 219.703 532.289C219.703 529.766 217.658 527.721 215.135 527.721C212.612 527.721 210.567 529.766 210.567 532.289C210.567 534.812 212.612 536.858 215.135 536.858Z" fill="black"/>
<path d="M215.136 538.767C211.579 538.767 208.658 535.884 208.658 532.327C208.658 528.769 211.541 525.886 215.136 525.886C218.731 525.886 221.577 528.769 221.577 532.327C221.577 535.884 218.693 538.767 215.136 538.767ZM215.136 529.593C213.638 529.593 212.403 530.829 212.403 532.289C212.403 533.75 213.638 534.985 215.136 534.985C216.634 534.985 217.832 533.75 217.832 532.289C217.832 530.829 216.597 529.593 215.136 529.593Z" fill="white"/>
<path d="M265.05 433.359V516.038H251.945V433.359H216.072V424.26H300.174V433.359H265.013H265.05Z" fill="black"/>
<path d="M266.923 517.947H250.072V435.269H214.2V422.425H302.046V435.269H266.885V517.947H266.923ZM253.817 514.203H263.178V431.524H298.339V426.17H217.982V431.524H253.854V514.203H253.817Z" fill="black"/>
<path d="M321.104 515.925C316.648 515.925 313.166 514.652 311.031 512.331C308.86 510.159 307.849 507.201 307.849 503.756V436.43C307.849 432.723 309.159 429.765 311.294 427.855C314.027 425.533 317.921 424.41 322.677 424.41H383.75V433.397H324.998C322.827 433.397 320.692 435.082 320.692 437.104V464.027H379.181V473.013H320.692V503.269C320.692 505.441 323.126 507.126 325.448 507.126H383.787V515.963H321.142L321.104 515.925Z" fill="black"/>
<path d="M385.622 517.798H321.104C316.162 517.798 312.23 516.337 309.646 513.604C307.212 511.17 305.977 507.837 305.977 503.719V436.392C305.977 432.311 307.437 428.754 310.058 426.395C313.166 423.773 317.397 422.463 322.677 422.463H385.622V435.194H324.999C323.8 435.194 322.565 436.13 322.565 437.029V462.08H381.054V474.811H322.565V503.194C322.565 504.168 324.062 505.179 325.448 505.179H385.659V517.76L385.622 517.798ZM322.677 426.245C318.296 426.245 314.888 427.256 312.492 429.278C310.695 430.888 309.684 433.397 309.684 436.43V503.756C309.684 506.826 310.582 509.26 312.305 511.02C314.177 513.005 317.21 514.053 321.067 514.053H381.84V508.961H325.373C322.228 508.961 318.745 506.602 318.745 503.232V471.104H377.234V465.862H318.745V437.066C318.745 434.108 321.629 431.487 324.924 431.487H381.803V426.245H322.602H322.677Z" fill="black"/>
<path d="M612.241 361.615C613.064 355.623 613.476 349.595 613.476 343.491C613.476 269.874 554.313 210 481.632 210C436.287 210 395.022 233.066 370.87 271.073C358.925 268.826 346.718 267.703 334.399 267.703C261.531 267.703 198.137 307.844 178.403 363.712C172.262 362.776 166.046 362.289 159.83 362.289C118.454 362.289 79.8853 383.146 56.6694 418.082C56.2201 418.756 55.9205 419.43 55.5835 420.141H103.214C118.94 406.961 138.861 399.472 159.868 399.472C168.78 399.472 177.617 400.82 186.079 403.441C190.985 404.976 196.302 404.265 200.645 401.456C204.989 398.648 207.985 394.042 208.883 388.837C216.859 340.983 270.817 304.886 334.436 304.886C348.403 304.886 362.146 306.645 375.401 310.09C383.489 312.225 391.877 308.256 395.696 300.579C412.097 267.628 445.049 247.145 481.707 247.145C534.692 247.145 577.754 290.357 577.754 343.491C577.754 353.601 576.181 363.599 573.073 373.223C571.201 378.989 572.174 385.392 575.732 390.26C579.252 395.128 584.831 397.861 590.747 397.674C592.095 397.637 593.406 397.562 594.754 397.562C618.232 397.562 642.234 409.32 658.934 423.399H690.538C683.461 395.278 653.393 372.361 612.353 361.577L612.241 361.615Z" fill="url(#paint0_linear_301_2)"/>
<path d="M703.382 492.859L705.666 491.436C705.666 426.994 654.516 379.813 594.679 379.813C593.144 379.813 591.571 379.85 590.073 379.925L587.377 380.038L588.201 377.491C591.871 366.145 593.705 354.388 593.705 342.443C593.705 280.097 543.417 229.396 481.633 229.396C438.983 229.396 400.564 253.324 381.392 291.855L380.718 293.203L379.258 292.828C364.767 289.046 349.676 287.099 334.399 287.099C263.104 287.099 202.33 329.15 193.044 384.905L192.707 387.04L190.648 386.403C180.687 383.295 170.315 381.723 159.83 381.723C124.969 381.723 92.5043 399.247 72.958 428.641L69.8501 426.582C90.1078 396.176 123.733 377.978 159.868 377.978C170.015 377.978 180.088 379.401 189.786 382.209C200.496 325.705 262.242 283.355 334.474 283.355C349.527 283.355 364.43 285.189 378.809 288.822C398.842 249.804 438.121 225.652 481.707 225.652C545.589 225.652 597.525 278.037 597.525 342.443C597.525 353.863 595.877 365.172 592.619 376.106C593.331 376.106 594.042 376.106 594.754 376.106C656.725 376.106 703.494 426.32 703.494 492.897L703.382 492.859Z" fill="white"/>
<path d="M718.659 451.334H690.425C686.494 467.248 677.657 486.719 657.848 500.387V511.47C657.848 513.417 659.458 514.99 661.405 514.99H686.868C688.815 514.99 690.425 513.417 690.425 511.47V483.536H718.659C720.606 483.536 722.216 481.964 722.216 480.016V454.816C722.216 452.869 720.606 451.296 718.659 451.296V451.334Z" fill="url(#paint1_linear_301_2)"/>
<path d="M686.868 419.917H661.405C659.72 419.917 658.41 421.078 658.035 422.65C662.304 425.796 668.033 430.851 670.579 436.73C674.886 446.652 667.958 451.633 667.958 451.633H628.341C627.031 452.157 626.095 453.393 626.095 454.89V480.091C626.095 482.038 627.705 483.611 629.652 483.611H647.513C663.689 477.282 681.588 464.439 690.425 438.527V423.474C690.425 421.527 688.815 419.954 686.868 419.954V419.917Z" fill="url(#paint2_linear_301_2)"/>
<path d="M66.0678 494.02H60.5259C60.5259 496.604 61.125 499.188 62.2858 501.547C63.4092 503.831 64.9819 505.853 66.929 507.538C68.8387 509.223 71.0854 510.533 73.5193 511.469C76.103 512.481 78.8365 512.93 81.6449 512.93H124.033C126.878 512.93 129.687 512.443 132.271 511.469C134.742 510.533 137.026 509.223 138.973 507.538C140.92 505.853 142.493 503.831 143.616 501.547C144.777 499.225 145.376 496.641 145.376 494.02V428.604H139.834V434.146H144.627V428.604H139.085V494.02C139.085 495.743 138.748 497.166 138 498.626C137.213 500.199 136.202 501.509 134.817 502.707C133.431 503.906 131.859 504.879 129.949 505.591C128.114 506.302 126.167 506.639 123.995 506.639H81.6075C79.3982 506.639 77.4136 506.265 75.5788 505.591C73.6691 504.879 72.0964 503.906 70.7484 502.745C69.4004 501.547 68.3894 500.199 67.5656 498.626C66.8541 497.166 66.5171 495.743 66.4797 494.02V428.604H60.9378V434.146H65.9554V428.604H60.4136V494.02H71.4973V423.062H55.5083V494.02C55.5083 497.353 56.2572 500.61 57.755 503.569C59.1779 506.377 61.0876 508.923 63.4841 511.02C65.8806 513.155 68.6515 514.802 71.722 515.963C74.8674 517.161 78.2374 517.723 81.6823 517.723H124.07C127.478 517.723 130.81 517.124 133.918 515.963C136.989 514.802 139.759 513.155 142.156 511.058C144.552 508.961 146.537 506.414 147.923 503.606C149.42 500.648 150.169 497.39 150.169 494.058V423.099H134.293V494.058C134.293 495.031 134.105 495.818 133.693 496.679C133.244 497.615 132.608 498.401 131.709 499.188C130.81 499.936 129.762 500.61 128.339 501.135C127.066 501.621 125.643 501.884 123.995 501.884H81.6075C80.0348 501.884 78.6867 501.621 77.4885 501.172C76.1405 500.648 75.0546 499.974 74.1559 499.188C73.2572 498.401 72.6581 497.577 72.1713 496.679C71.7594 495.818 71.5722 495.031 71.5722 494.058H66.0303M478.974 510.234H473.432L474.068 510.309L473.469 510.196V510.271H474.068L473.469 510.159L475.978 510.571L473.694 509.485L473.469 510.159L475.978 510.571L473.694 509.485L477.064 511.132L475.192 507.875C474.48 508.287 473.881 508.998 473.656 509.485L477.026 511.132L475.154 507.875L476.802 510.758V507.388C476.502 507.388 475.866 507.463 475.154 507.875L476.802 510.758V507.388V510.608L478.337 507.762C477.888 507.5 477.289 507.351 476.802 507.388V510.608L478.337 507.762L477.176 509.934L479.123 508.399C479.123 508.399 478.786 508.025 478.337 507.762L477.176 509.934L479.123 508.399L478.936 508.137L394.872 423.624V512.106H400.414V506.564H395.396V512.106H400.938V430.588L399.029 430.476L400.826 431.113L400.938 430.588L399.029 430.476L400.826 431.113L397.418 429.877L399.328 432.91C400.114 432.461 400.676 431.599 400.788 431.113L397.381 429.877L399.291 432.91L397.643 430.326V433.472C397.868 433.472 398.542 433.434 399.291 432.947L397.643 430.364V433.509V427.967L396.557 433.397L397.081 430.701L396.108 433.284L396.52 433.397L397.044 430.701L396.07 433.284L396.407 432.423L396.033 433.284H396.07L396.407 432.423L396.033 433.284L396.932 431.524L395.733 433.097L396.07 433.284L396.969 431.524L395.771 433.097L395.846 433.172L479.685 517.348V428.304H474.143V433.846H478.936V428.304H473.394V510.234H484.478V422.8H468.601V490.575L403.709 425.383C402.998 424.672 402.211 423.998 401.088 423.436C400.414 423.099 399.74 422.8 398.766 422.613L398.242 422.5H397.68C396.782 422.5 395.733 422.613 394.685 423.062C393.075 423.661 391.54 425.084 390.791 426.582C390.042 428.08 389.854 429.465 389.854 430.738V517.798H405.956V450.584L470.885 515.851L474.817 511.956L470.474 515.364C471.148 516.225 472.009 517.049 473.132 517.648C474.255 518.247 475.603 518.584 476.839 518.584C477.775 518.584 478.861 518.434 479.985 517.947C481.632 517.273 483.092 515.738 483.692 514.278C484.366 512.818 484.478 511.507 484.515 510.271H478.974M499.082 433.621H493.54V512.967H557.009C559.855 512.967 562.663 512.48 565.247 511.507C567.718 510.571 570.002 509.26 571.949 507.575C573.859 505.89 575.469 503.868 576.593 501.584C577.753 499.262 578.352 496.679 578.352 494.058V446.802C578.352 444.218 577.753 441.597 576.593 439.276C575.469 436.991 573.859 434.969 571.912 433.284C569.965 431.599 567.681 430.326 565.172 429.428C562.588 428.491 559.817 428.042 556.971 428.042H493.502V433.584H499.044V439.126H556.971C558.656 439.126 560.079 439.388 561.352 439.837C562.738 440.361 563.824 440.998 564.685 441.709C565.584 442.458 566.145 443.245 566.595 444.143C567.007 445.005 567.194 445.791 567.194 446.765V494.02C567.194 494.994 567.007 495.78 566.595 496.641C566.145 497.577 565.509 498.364 564.61 499.15C563.749 499.899 562.663 500.573 561.24 501.097C559.967 501.584 558.544 501.846 556.897 501.846H504.511V433.547H498.969M556.897 428.754V434.295C559.031 434.295 560.978 434.67 562.85 435.344C564.797 436.093 566.408 437.029 567.756 438.227C569.104 439.425 570.115 440.698 570.901 442.234C571.612 443.657 571.949 445.08 571.949 446.765V494.02C571.949 495.743 571.612 497.166 570.863 498.626C570.077 500.199 569.066 501.509 567.681 502.707C566.295 503.906 564.723 504.879 562.813 505.591C560.978 506.302 559.031 506.639 556.859 506.639H499.418V434.295H556.859V423.212H488.372V517.685H556.859C560.267 517.685 563.599 517.086 566.707 515.925C569.778 514.765 572.549 513.117 574.945 511.02C577.342 508.923 579.326 506.377 580.712 503.569C582.209 500.61 582.958 497.353 582.958 494.02V446.765C582.958 443.432 582.209 440.174 580.712 437.216C579.289 434.408 577.304 431.899 574.908 429.802C572.511 427.743 569.74 426.132 566.707 424.972C563.599 423.773 560.267 423.212 556.859 423.212V428.754" fill="black"/>
<defs>
<linearGradient id="paint0_linear_301_2" x1="55.5086" y1="316.718" x2="690.426" y2="316.718" gradientUnits="userSpaceOnUse">
<stop offset="0.18" stop-color="#00B2A9"/>
<stop offset="1" stop-color="#00A2E9"/>
</linearGradient>
<linearGradient id="paint1_linear_301_2" x1="657.848" y1="483.162" x2="722.216" y2="483.162" gradientUnits="userSpaceOnUse">
<stop offset="0.18" stop-color="#00B2A9"/>
<stop offset="1" stop-color="#00A2E9"/>
</linearGradient>
<linearGradient id="paint2_linear_301_2" x1="626.057" y1="451.745" x2="690.425" y2="451.745" gradientUnits="userSpaceOnUse">
<stop offset="0.18" stop-color="#00B2A9"/>
<stop offset="1" stop-color="#00A2E9"/>
</linearGradient>
</defs>
</svg>
