<svg width="56" height="56" viewBox="0 0 56 56" fill="none" xmlns="http://www.w3.org/2000/svg">
<rect width="56" height="56" rx="10" fill="#E0E0E0"/>
<path d="M38.5208 13H18.1042C16.7505 13 15.4522 13.5378 14.495 14.495C13.5378 15.4522 13 16.7505 13 18.1042V38.5208C13 39.8745 13.5378 41.1728 14.495 42.13C15.4522 43.0872 16.7505 43.625 18.1042 43.625H38.5208C39.8745 43.625 41.1728 43.0872 42.13 42.13C43.0872 41.1728 43.625 39.8745 43.625 38.5208V18.1042C43.625 16.7505 43.0872 15.4522 42.13 14.495C41.1728 13.5378 39.8745 13 38.5208 13ZM18.1042 16.4028H38.5208C38.9721 16.4028 39.4048 16.582 39.7239 16.9011C40.043 17.2202 40.2222 17.6529 40.2222 18.1042V32.3278L34.7778 27.683C33.9342 26.9889 32.8757 26.6094 31.7833 26.6094C30.6909 26.6094 29.6324 26.9889 28.7889 27.683L16.4028 38.0104V18.1042C16.4028 17.6529 16.582 17.2202 16.9011 16.9011C17.2202 16.582 17.6529 16.4028 18.1042 16.4028Z" fill="#288289"/>
<path d="M21.5069 24.9089C22.9164 24.9089 24.059 23.7662 24.059 22.3568C24.059 20.9473 22.9164 19.8047 21.5069 19.8047C20.0974 19.8047 18.9548 20.9473 18.9548 22.3568C18.9548 23.7662 20.0974 24.9089 21.5069 24.9089Z" fill="#288289"/>
</svg>
