<svg width="46" height="46" viewBox="0 0 46 46" fill="none" xmlns="http://www.w3.org/2000/svg">
<path fill-rule="evenodd" clip-rule="evenodd" d="M3.83333 46C3.83333 46 0 46 0 42.1667C0 38.3333 3.83333 26.8333 23 26.8333C42.1667 26.8333 46 38.3333 46 42.1667C46 46 42.1667 46 42.1667 46H3.83333ZM23 23C26.05 23 28.9751 21.7884 31.1317 19.6317C33.2884 17.4751 34.5 14.55 34.5 11.5C34.5 8.45001 33.2884 5.52494 31.1317 3.36827C28.9751 1.2116 26.05 0 23 0C19.95 0 17.0249 1.2116 14.8683 3.36827C12.7116 5.52494 11.5 8.45001 11.5 11.5C11.5 14.55 12.7116 17.4751 14.8683 19.6317C17.0249 21.7884 19.95 23 23 23Z" fill="#288289"/>
</svg>
