<svg width="72" height="72" viewBox="0 0 72 72" fill="none" xmlns="http://www.w3.org/2000/svg">
<path d="M27.4736 9.47266H15.4736C13.8823 9.47266 12.3562 10.1048 11.231 11.23C10.1058 12.3552 9.47363 13.8814 9.47363 15.4727V27.4727C9.47363 29.064 10.1058 30.5901 11.231 31.7153C12.3562 32.8405 13.8823 33.4727 15.4736 33.4727H27.4736C29.0649 33.4727 30.5911 32.8405 31.7163 31.7153C32.8415 30.5901 33.4736 29.064 33.4736 27.4727V15.4727C33.4736 13.8814 32.8415 12.3552 31.7163 11.23C30.5911 10.1048 29.0649 9.47266 27.4736 9.47266Z" fill="#555555"/>
<path d="M57.4731 9.47266H45.4731C43.8818 9.47266 42.3557 10.1048 41.2305 11.23C40.1053 12.3552 39.4731 13.8814 39.4731 15.4727V27.4727C39.4731 29.064 40.1053 30.5901 41.2305 31.7153C42.3557 32.8405 43.8818 33.4727 45.4731 33.4727H57.4731C59.0644 33.4727 60.5906 32.8405 61.7158 31.7153C62.841 30.5901 63.4731 29.064 63.4731 27.4727V15.4727C63.4731 13.8814 62.841 12.3552 61.7158 11.23C60.5906 10.1048 59.0644 9.47266 57.4731 9.47266Z" fill="#555555"/>
<path d="M27.4736 39.4746H15.4736C13.8823 39.4746 12.3562 40.1068 11.231 41.232C10.1058 42.3572 9.47363 43.8833 9.47363 45.4746V57.4746C9.47363 59.0659 10.1058 60.592 11.231 61.7172C12.3562 62.8425 13.8823 63.4746 15.4736 63.4746H27.4736C29.0649 63.4746 30.5911 62.8425 31.7163 61.7172C32.8415 60.592 33.4736 59.0659 33.4736 57.4746V45.4746C33.4736 43.8833 32.8415 42.3572 31.7163 41.232C30.5911 40.1068 29.0649 39.4746 27.4736 39.4746Z" fill="#555555"/>
<path d="M57.4731 39.4746H45.4731C43.8818 39.4746 42.3557 40.1068 41.2305 41.232C40.1053 42.3572 39.4731 43.8833 39.4731 45.4746V57.4746C39.4731 59.0659 40.1053 60.592 41.2305 61.7172C42.3557 62.8425 43.8818 63.4746 45.4731 63.4746H57.4731C59.0644 63.4746 60.5906 62.8425 61.7158 61.7172C62.841 60.592 63.4731 59.0659 63.4731 57.4746V45.4746C63.4731 43.8833 62.841 42.3572 61.7158 41.232C60.5906 40.1068 59.0644 39.4746 57.4731 39.4746Z" fill="#555555"/>
</svg>
