<svg width="58" height="58" viewBox="0 0 58 58" fill="none" xmlns="http://www.w3.org/2000/svg">
<path d="M28.74 31.1357C30.0628 31.1357 31.135 30.0634 31.135 28.7407C31.135 27.418 30.0628 26.3457 28.74 26.3457C27.4173 26.3457 26.345 27.418 26.345 28.7407C26.345 30.0634 27.4173 31.1357 28.74 31.1357Z" fill="#288289"/>
<path d="M38.32 31.1357C39.6427 31.1357 40.715 30.0634 40.715 28.7407C40.715 27.418 39.6427 26.3457 38.32 26.3457C36.9973 26.3457 35.925 27.418 35.925 28.7407C35.925 30.0634 36.9973 31.1357 38.32 31.1357Z" fill="#288289"/>
<path d="M19.16 31.1357C20.4827 31.1357 21.555 30.0634 21.555 28.7407C21.555 27.418 20.4827 26.3457 19.16 26.3457C17.8373 26.3457 16.765 27.418 16.765 28.7407C16.765 30.0634 17.8373 31.1357 19.16 31.1357Z" fill="#288289"/>
<path d="M45.6727 11.8083C41.743 7.85297 36.5564 5.39261 31.0072 4.85141C25.4579 4.31021 19.8937 5.72208 15.2738 8.84361C10.654 11.9651 7.26796 16.6007 5.69954 21.9512C4.13113 27.3016 4.4786 33.0316 6.68206 38.1533C6.91171 38.6293 6.98707 39.1652 6.89761 39.6861L4.79001 49.817C4.70881 50.2054 4.72539 50.6079 4.83826 50.9883C4.95113 51.3687 5.15676 51.7151 5.43666 51.9964C5.66611 52.2242 5.93931 52.4032 6.23978 52.5225C6.54026 52.6419 6.86179 52.6992 7.18501 52.691H7.66401L17.9146 50.6313C18.4356 50.5686 18.9639 50.6429 19.4474 50.8468C24.5691 53.0503 30.2991 53.3977 35.6496 51.8293C41 50.2609 45.6356 46.8749 48.7571 42.255C51.8786 37.6352 53.2905 32.071 52.7493 26.5217C52.2081 20.9724 49.7477 15.7859 45.7924 11.8562L45.6727 11.8083ZM47.6605 31.8305C47.1922 34.6901 46.0815 37.4062 44.4118 39.7745C42.7421 42.1428 40.557 44.1015 38.021 45.5032C35.4849 46.905 32.664 47.7132 29.7704 47.8672C26.8768 48.0212 23.986 47.5168 21.3155 46.3921C20.3684 45.9893 19.351 45.7776 18.3218 45.7694C17.8722 45.7726 17.4236 45.8126 16.9806 45.8892L10.2267 47.2543L11.5918 40.5004C11.8637 39.0377 11.6884 37.527 11.0889 36.1655C9.96415 33.495 9.45979 30.6042 9.61376 27.7106C9.76772 24.817 10.576 21.996 11.9777 19.46C13.3795 16.9239 15.3382 14.7388 17.7065 13.0692C20.0747 11.3995 22.7909 10.2887 25.6505 9.82046C28.652 9.32785 31.7278 9.55695 34.6233 10.4888C37.5188 11.4207 40.1508 13.0285 42.3016 15.1794C44.4524 17.3302 46.0603 19.9622 46.9922 22.8577C47.924 25.7532 48.1531 28.8289 47.6605 31.8305Z" fill="#288289"/>
</svg>
