<svg width="50" height="50" viewBox="0 0 50 50" fill="none" xmlns="http://www.w3.org/2000/svg">
<path d="M18.7501 37.5013C18.7491 37.0145 18.9186 36.5427 19.2292 36.1679L28.5626 25.0013L19.5626 13.8138C19.3895 13.6007 19.2603 13.3555 19.1823 13.0922C19.1043 12.829 19.0791 12.553 19.1082 12.28C19.1372 12.0071 19.2199 11.7425 19.3515 11.5016C19.4831 11.2607 19.6611 11.0482 19.8751 10.8763C20.0882 10.7032 20.3334 10.574 20.5966 10.496C20.8598 10.418 21.1358 10.3928 21.4088 10.4218C21.6818 10.4509 21.9463 10.5336 22.1872 10.6652C22.4281 10.7968 22.6406 10.9747 22.8126 11.1888L32.8751 23.6888C33.1815 24.0615 33.349 24.5291 33.349 25.0117C33.349 25.4942 33.1815 25.9618 32.8751 26.3346L22.4584 38.8346C22.2835 39.0455 22.0687 39.2199 21.8263 39.3477C21.5839 39.4756 21.3187 39.5543 21.0458 39.5795C20.773 39.6046 20.4978 39.5757 20.2361 39.4943C19.9745 39.413 19.7314 39.2808 19.5209 39.1054C19.2819 38.9116 19.0888 38.6672 18.9556 38.3898C18.8223 38.1124 18.7521 37.809 18.7501 37.5013Z" fill="white"/>
</svg>
