<svg width="50" height="50" viewBox="0 0 50 50" fill="none" xmlns="http://www.w3.org/2000/svg">
<path d="M36.2503 45.8329C27.7447 45.8219 19.5906 42.4382 13.5762 36.4238C7.56176 30.4093 4.17802 22.2552 4.16699 13.7496C4.16699 11.2079 5.17666 8.77037 6.97389 6.97315C8.77111 5.17592 11.2087 4.16625 13.7503 4.16625C14.2885 4.16215 14.8258 4.211 15.3545 4.31209C15.8656 4.38771 16.368 4.51332 16.8545 4.68709C17.1967 4.80715 17.5016 5.01445 17.7391 5.28849C17.9766 5.56253 18.1385 5.89381 18.2087 6.24959L21.0628 18.7496C21.1398 19.0889 21.1305 19.442 21.0359 19.7768C20.9413 20.1116 20.7643 20.4174 20.5212 20.6663C20.2503 20.9579 20.2295 20.9788 17.667 22.3121C19.7191 26.8139 23.3195 30.4291 27.8128 32.4996C29.167 29.9163 29.1878 29.8954 29.4795 29.6246C29.7283 29.3814 30.0341 29.2045 30.3689 29.1099C30.7037 29.0153 31.0569 29.006 31.3962 29.0829L43.8962 31.9371C44.2405 32.017 44.5589 32.1832 44.8213 32.4201C45.0838 32.657 45.2816 32.9568 45.3962 33.2913C45.572 33.7857 45.7044 34.2946 45.792 34.8121C45.8758 35.3357 45.9176 35.8652 45.917 36.3954C45.8786 38.9262 44.8405 41.339 43.0294 43.1072C41.2183 44.8753 38.7813 45.8552 36.2503 45.8329ZM13.7503 8.33292C12.3154 8.33841 10.9409 8.91085 9.92623 9.92549C8.91159 10.9401 8.33915 12.3147 8.33366 13.7496C8.33918 21.1519 11.2822 28.2494 16.5164 33.4836C21.7505 38.7178 28.8481 41.6607 36.2503 41.6663C37.6852 41.6608 39.0598 41.0883 40.0744 40.0737C41.0891 39.059 41.6615 37.6845 41.667 36.2496C41.667 36.0204 41.667 35.7913 41.667 35.5621L32.0003 33.3329L31.3962 34.4788C30.4587 36.2913 29.7712 37.6038 28.0212 36.8954C24.5688 35.6597 21.4351 33.6705 18.8477 31.0723C16.2603 28.474 14.2841 25.332 13.0628 21.8746C12.3128 20.2496 13.7295 19.4996 15.5212 18.5621L16.667 17.9996L14.4378 8.33292H13.7503Z" fill="#454545"/>
</svg>
