<svg width="31" height="31" viewBox="0 0 31 31" fill="none" xmlns="http://www.w3.org/2000/svg">
<path d="M25.5208 0H5.10417C3.75046 0 2.45219 0.537759 1.49498 1.49498C0.537759 2.45219 0 3.75046 0 5.10417V25.5208C0 26.8745 0.537759 28.1728 1.49498 29.13C2.45219 30.0872 3.75046 30.625 5.10417 30.625H25.5208C26.8745 30.625 28.1728 30.0872 29.13 29.13C30.0872 28.1728 30.625 26.8745 30.625 25.5208V5.10417C30.625 3.75046 30.0872 2.45219 29.13 1.49498C28.1728 0.537759 26.8745 0 25.5208 0ZM5.10417 3.40278H25.5208C25.9721 3.40278 26.4048 3.58203 26.7239 3.9011C27.043 4.22018 27.2222 4.65293 27.2222 5.10417V19.3278L21.7778 14.683C20.9342 13.9889 19.8757 13.6094 18.7833 13.6094C17.6909 13.6094 16.6324 13.9889 15.7889 14.683L3.40278 25.0104V5.10417C3.40278 4.65293 3.58203 4.22018 3.9011 3.9011C4.22018 3.58203 4.65293 3.40278 5.10417 3.40278Z" fill="#288289"/>
<path d="M8.50716 11.9097C9.91664 11.9097 11.0592 10.7671 11.0592 9.35759C11.0592 7.94812 9.91664 6.80551 8.50716 6.80551C7.09768 6.80551 5.95508 7.94812 5.95508 9.35759C5.95508 10.7671 7.09768 11.9097 8.50716 11.9097Z" fill="#288289"/>
</svg>
