<svg width="52" height="47" viewBox="0 0 52 47" fill="none" xmlns="http://www.w3.org/2000/svg">
<path d="M4.62231 13.0889L4.62231 6.37743C4.62231 4.33483 6.35565 2.29224 8.66675 2.29224C11.6712 2.29224 14.5408 2.29224 15.6001 2.29224" stroke="#288289" stroke-width="2.67979" stroke-linecap="round"/>
<path d="M36.3999 2L43.0444 2C45.0666 2 47.0889 3.7508 47.0889 6.08519C47.0889 9.11991 47.0889 12.0185 47.0889 13.0884" stroke="#288289" stroke-width="2.67979" stroke-linecap="round"/>
<path d="M47.3777 34.0979L47.3777 40.8093C47.3777 42.8519 45.6444 44.8945 43.3332 44.8945C40.3288 44.8945 37.4592 44.8945 36.3999 44.8945" stroke="#288289" stroke-width="2.67979" stroke-linecap="round"/>
<path d="M15.3113 45.1868L8.66676 45.1868C6.64453 45.1868 4.62231 43.436 4.62231 41.1016C4.62231 38.0669 4.62231 35.1683 4.62231 34.0984" stroke="#288289" stroke-width="2.67979" stroke-linecap="round"/>
<line x1="1.3399" y1="24.0039" x2="50.6601" y2="24.0039" stroke="#288289" stroke-width="2.67979" stroke-linecap="round"/>
</svg>
