<svg width="31" height="31" viewBox="0 0 31 31" fill="none" xmlns="http://www.w3.org/2000/svg">
<path fill-rule="evenodd" clip-rule="evenodd" d="M20.2313 20.2303C20.4113 20.0502 20.625 19.9073 20.8602 19.8098C21.0954 19.7123 21.3475 19.6621 21.6021 19.6621C21.8567 19.6621 22.1088 19.7123 22.344 19.8098C22.5792 19.9073 22.7929 20.0502 22.9729 20.2303L30.4321 27.6896C30.7957 28.0529 31 28.5458 31.0002 29.0597C31.0004 29.5737 30.7964 30.0666 30.4331 30.4302C30.0698 30.7937 29.577 30.9981 29.063 30.9983C28.5491 30.9984 28.0561 30.7944 27.6926 30.4312L20.2333 22.9719C20.0531 22.7919 19.9102 22.5783 19.8127 22.343C19.7152 22.1078 19.665 21.8557 19.665 21.6011C19.665 21.3465 19.7152 21.0944 19.8127 20.8592C19.9102 20.624 20.0512 20.4103 20.2313 20.2303Z" fill="#454545"/>
<path fill-rule="evenodd" clip-rule="evenodd" d="M12.5936 23.2497C13.993 23.2497 15.3787 22.9741 16.6715 22.4386C17.9644 21.903 19.1391 21.1181 20.1286 20.1286C21.1181 19.1391 21.903 17.9644 22.4386 16.6715C22.9741 15.3787 23.2497 13.993 23.2497 12.5936C23.2497 11.1942 22.9741 9.80853 22.4386 8.51567C21.903 7.22281 21.1181 6.04809 20.1286 5.05858C19.1391 4.06907 17.9644 3.28414 16.6715 2.74862C15.3787 2.2131 13.993 1.93748 12.5936 1.93748C9.76741 1.93748 7.05699 3.06017 5.05858 5.05858C3.06017 7.05699 1.93748 9.76741 1.93748 12.5936C1.93748 15.4198 3.06017 18.1302 5.05858 20.1286C7.05699 22.127 9.76741 23.2497 12.5936 23.2497ZM25.1872 12.5936C25.1872 15.9336 23.8604 19.1368 21.4986 21.4986C19.1368 23.8604 15.9336 25.1872 12.5936 25.1872C9.25356 25.1872 6.05033 23.8604 3.68858 21.4986C1.32682 19.1368 0 15.9336 0 12.5936C0 9.25356 1.32682 6.05033 3.68858 3.68858C6.05033 1.32682 9.25356 0 12.5936 0C15.9336 0 19.1368 1.32682 21.4986 3.68858C23.8604 6.05033 25.1872 9.25356 25.1872 12.5936Z" fill="#454545"/>
</svg>
