<svg width="46" height="46" viewBox="0 0 46 46" fill="none" xmlns="http://www.w3.org/2000/svg">
<path d="M24.8018 42.1673H21.1793C20.3253 42.1673 19.5063 41.8281 18.9024 41.2242C18.2986 40.6203 17.9593 39.8013 17.9593 38.9473V36.8582C17.9489 36.7351 17.9038 36.6175 17.8291 36.5191C17.7545 36.4206 17.6534 36.3455 17.5377 36.3023C17.4204 36.2272 17.284 36.1872 17.1447 36.1872C17.0055 36.1872 16.8691 36.2272 16.7518 36.3023L15.3335 37.8357C15.036 38.1353 14.6821 38.373 14.2923 38.5353C13.9025 38.6976 13.4845 38.7811 13.0622 38.7811C12.64 38.7811 12.222 38.6976 11.8322 38.5353C11.4424 38.373 11.0885 38.1353 10.791 37.8357L8.16516 35.2673C7.86122 34.9704 7.61982 34.6156 7.45523 34.2239C7.29063 33.8321 7.20617 33.4114 7.20683 32.9865C7.20806 32.1173 7.55249 31.2838 8.16516 30.6673L9.5835 29.249C9.65197 29.1434 9.68841 29.0202 9.68841 28.8944C9.68841 28.7686 9.65197 28.6454 9.5835 28.5398C9.4685 28.2523 9.27683 28.0415 9.0085 28.0415H7.0535C6.19774 28.0364 5.37876 27.6929 4.77544 27.086C4.17212 26.4791 3.83348 25.6581 3.8335 24.8023V21.1798C3.8335 20.3258 4.17275 19.5068 4.77661 18.9029C5.38048 18.2991 6.1995 17.9598 7.0535 17.9598H9.14266C9.26575 17.9494 9.38335 17.9043 9.48176 17.8296C9.58017 17.755 9.65534 17.6539 9.6985 17.5381C9.77363 17.4209 9.81357 17.2845 9.81357 17.1452C9.81357 17.006 9.77363 16.8696 9.6985 16.7523L8.16516 15.334C7.86556 15.0365 7.62778 14.6826 7.46551 14.2928C7.30325 13.903 7.21971 13.485 7.21971 13.0627C7.21971 12.6405 7.30325 12.2225 7.46551 11.8326C7.62778 11.4428 7.86556 11.089 8.16516 10.7915L10.7335 8.16565C11.0275 7.86314 11.3791 7.62252 11.7675 7.45793C12.1559 7.29335 12.5733 7.20814 12.9952 7.20732C13.4288 7.20541 13.8586 7.28908 14.2598 7.45353C14.6611 7.61798 15.0259 7.85997 15.3335 8.16565L16.7518 9.58398C16.8574 9.65246 16.9806 9.6889 17.1064 9.6889C17.2323 9.6889 17.3554 9.65246 17.461 9.58398C17.7485 9.46898 17.9593 9.27732 17.9593 9.00898V7.05398C17.9644 6.19823 18.3079 5.37925 18.9148 4.77593C19.5217 4.17261 20.3427 3.83397 21.1985 3.83398H24.9168C25.7708 3.83398 26.5898 4.17323 27.1937 4.7771C27.7976 5.38097 28.1368 6.19999 28.1368 7.05398V9.14315C28.1472 9.26624 28.1924 9.38384 28.267 9.48225C28.3417 9.58066 28.4428 9.65582 28.5585 9.69898C28.6758 9.77412 28.8121 9.81406 28.9514 9.81406C29.0907 9.81406 29.2271 9.77412 29.3443 9.69898L30.6668 8.16565C30.9643 7.86605 31.3182 7.62826 31.708 7.466C32.0978 7.30374 32.5159 7.2202 32.9381 7.2202C33.3603 7.2202 33.7784 7.30374 34.1682 7.466C34.558 7.62826 34.9118 7.86605 35.2093 8.16565L37.8352 10.734C38.1382 11.0316 38.3791 11.3865 38.5436 11.7781C38.7081 12.1697 38.7931 12.5901 38.7935 13.0148C38.8027 13.4466 38.7224 13.8757 38.5574 14.2748C38.3925 14.674 38.1465 15.0347 37.8352 15.334L36.4168 16.7523C36.3484 16.8579 36.3119 16.9811 36.3119 17.1069C36.3119 17.2327 36.3484 17.3559 36.4168 17.4615C36.5318 17.749 36.7235 17.9598 36.9918 17.9598H39.081C39.9132 17.9993 40.6983 18.3579 41.2729 18.9611C41.8476 19.5643 42.1678 20.3658 42.1668 21.199V24.9173C42.1668 25.7713 41.8276 26.5903 41.2237 27.1942C40.6198 27.7981 39.8008 28.1373 38.9468 28.1373H36.8577C36.7346 28.1477 36.617 28.1928 36.5186 28.2675C36.4202 28.3422 36.345 28.4432 36.3018 28.559C36.2334 28.6646 36.1969 28.7877 36.1969 28.9136C36.1969 29.0394 36.2334 29.1626 36.3018 29.2682L37.7777 30.744C38.0773 31.0415 38.315 31.3953 38.4773 31.7851C38.6396 32.175 38.7231 32.593 38.7231 33.0152C38.7231 33.4375 38.6396 33.8555 38.4773 34.2453C38.315 34.6351 38.0773 34.989 37.7777 35.2865L35.2668 37.8357C34.9728 38.1382 34.6213 38.3788 34.2328 38.5434C33.8444 38.708 33.427 38.7932 33.0052 38.794C32.1493 38.7827 31.3314 38.4391 30.7243 37.8357L29.2485 36.4173C29.1429 36.3488 29.0198 36.3124 28.8939 36.3124C28.7681 36.3124 28.6449 36.3488 28.5393 36.4173C28.2518 36.5323 28.041 36.724 28.041 36.9923V39.0815C28.0016 39.9137 27.643 40.6987 27.0397 41.2734C26.4365 41.8481 25.635 42.1683 24.8018 42.1673ZM21.7927 38.334H24.2077V36.8582C24.2158 35.9743 24.4861 35.1127 24.9842 34.3826C25.4824 33.6524 26.186 33.0865 27.006 32.7565C27.8293 32.3966 28.7412 32.2901 29.6253 32.4505C30.5095 32.6109 31.3258 33.0311 31.9702 33.6573L33.0052 34.6923L34.6918 33.0056L33.6568 31.9515C33.0345 31.3168 32.6149 30.5116 32.4511 29.638C32.2873 28.7644 32.3867 27.8618 32.7368 27.0448C33.0698 26.2284 33.637 25.5288 34.3669 25.0343C35.0968 24.5397 35.9568 24.2723 36.8385 24.2656H38.3335V21.7931H36.8577C35.9738 21.785 35.1122 21.5147 34.3821 21.0166C33.6519 20.5184 33.086 19.8148 32.756 18.9948C32.3961 18.1715 32.2896 17.2596 32.45 16.3755C32.6105 15.4913 33.0306 14.675 33.6568 14.0307L34.6918 12.9957L33.0052 11.309L31.951 12.344C31.3065 12.9327 30.5071 13.325 29.6471 13.4747C28.7871 13.6244 27.9023 13.5253 27.0967 13.189C26.2912 12.8526 25.5985 12.2932 25.1002 11.5764C24.602 10.8596 24.3189 10.0154 24.2843 9.14315V7.66732H21.7927V9.14315C21.7845 10.027 21.5142 10.8886 21.0161 11.6187C20.5179 12.3489 19.8143 12.9148 18.9943 13.2448C18.171 13.6047 17.2591 13.7112 16.375 13.5508C15.4909 13.3904 14.6746 12.9702 14.0302 12.344L12.9952 11.309L11.3085 12.9957L12.3435 14.0498C12.9322 14.6943 13.3245 15.4937 13.4742 16.3537C13.6239 17.2137 13.5248 18.0986 13.1885 18.9041C12.8522 19.7097 12.2927 20.4023 11.5759 20.9006C10.8591 21.3988 10.0149 21.6819 9.14266 21.7165H7.66683V24.1315H9.14266C10.0265 24.1396 10.8881 24.4099 11.6183 24.9081C12.3484 25.4062 12.9143 26.1098 13.2443 26.9298C13.6042 27.7532 13.7107 28.665 13.5503 29.5492C13.3899 30.4333 12.9697 31.2496 12.3435 31.894L11.3085 32.929L12.9952 34.6157L14.0493 33.5807C14.6939 32.9919 15.4932 32.5996 16.3532 32.4499C17.2132 32.3002 18.0981 32.3994 18.9036 32.7357C19.7092 33.072 20.4018 33.6315 20.9001 34.3482C21.3984 35.065 21.6814 35.9092 21.716 36.7815L21.7927 38.334Z" fill="#288289"/>
<path d="M23.0003 29.7096C21.6735 29.7096 20.3766 29.3162 19.2734 28.5791C18.1702 27.842 17.3104 26.7943 16.8026 25.5685C16.2949 24.3427 16.1621 22.9939 16.4209 21.6926C16.6797 20.3913 17.3186 19.196 18.2568 18.2578C19.195 17.3196 20.3903 16.6807 21.6916 16.4219C22.9929 16.163 24.3417 16.2959 25.5675 16.8036C26.7933 17.3114 27.841 18.1712 28.5781 19.2744C29.3152 20.3775 29.7087 21.6745 29.7087 23.0013C29.7087 24.7805 29.0019 26.4868 27.7438 27.7448C26.4858 29.0029 24.7795 29.7096 23.0003 29.7096ZM23.0003 20.1263C22.4317 20.1263 21.8759 20.2949 21.4031 20.6108C20.9303 20.9267 20.5618 21.3758 20.3442 21.9011C20.1266 22.4264 20.0696 23.0045 20.1806 23.5622C20.2915 24.1199 20.5653 24.6322 20.9674 25.0342C21.3695 25.4363 21.8817 25.7101 22.4394 25.8211C22.9971 25.932 23.5752 25.8751 24.1005 25.6575C24.6259 25.4399 25.0749 25.0714 25.3908 24.5986C25.7067 24.1258 25.8753 23.5699 25.8753 23.0013C25.8753 22.2388 25.5724 21.5075 25.0333 20.9684C24.4941 20.4292 23.7628 20.1263 23.0003 20.1263Z" fill="#288289"/>
</svg>
