<svg width="33" height="32" viewBox="0 0 33 32" fill="none" xmlns="http://www.w3.org/2000/svg">
<path d="M14.8539 2.8665C15.372 1.27192 17.628 1.27192 18.1461 2.86649L20.1457 9.02064C20.6091 10.4469 21.9382 11.4125 23.4378 11.4125H29.9086C31.5853 11.4125 32.2824 13.558 30.926 14.5435L25.6909 18.347C24.4777 19.2284 23.97 20.7908 24.4334 22.2171L26.433 28.3712C26.9512 29.9658 25.1261 31.2918 23.7697 30.3063L18.5346 26.5028C17.3214 25.6214 15.6786 25.6214 14.4654 26.5028L9.23033 30.3063C7.8739 31.2918 6.04884 29.9658 6.56695 28.3712L8.56655 22.2171C9.02996 20.7909 8.5223 19.2284 7.30908 18.347L2.07405 14.5435C0.717619 13.558 1.41473 11.4125 3.09137 11.4125H9.56222C11.0618 11.4125 12.3909 10.4469 12.8543 9.02064L14.8539 2.8665Z" fill="#FFDE67" stroke="#FFDE67" stroke-width="1.73077"/>
</svg>
