<svg width="40" height="41" viewBox="0 0 40 41" fill="none" xmlns="http://www.w3.org/2000/svg">
<path fill-rule="evenodd" clip-rule="evenodd" d="M2.19622 35.0157C1.05286 36.2149 1.09808 38.1138 2.2972 39.2572C3.49633 40.4005 5.39529 40.3553 6.53864 39.1562L39.0392 5.07023C40.1826 3.8711 40.1374 1.97215 38.9382 0.828792C37.7391 -0.314562 35.8401 -0.269348 34.6968 0.929779L30.4954 5.33612L30.4783 5.31942C30.1893 5.02839 29.8456 4.79741 29.4669 4.63979C29.0883 4.48216 28.6822 4.40102 28.272 4.40102C27.8619 4.40102 27.4558 4.48216 27.0772 4.63979C26.6985 4.79741 26.3548 5.02839 26.0658 5.31942L24.7811 6.80889C24.6672 6.88188 24.5347 6.92068 24.3994 6.92068C24.2641 6.92068 24.1317 6.88188 24.0177 6.80889C23.9053 6.76697 23.8071 6.69395 23.7346 6.59836C23.6621 6.50276 23.6182 6.38853 23.6081 6.26896V4.23955C23.6081 3.40999 23.2786 2.61439 22.692 2.0278C22.1054 1.44121 21.3098 1.11166 20.4802 1.11166H16.8683C16.037 1.11165 15.2395 1.4406 14.6499 2.02666C14.0604 2.61273 13.7267 3.40828 13.7218 4.23955V6.13863C13.7218 6.39929 13.517 6.58547 13.2377 6.69718C13.1351 6.7637 13.0155 6.7991 12.8932 6.7991C12.771 6.7991 12.6514 6.7637 12.5488 6.69718L11.171 5.31942C10.8723 5.02249 10.5178 4.78741 10.1281 4.62767C9.73829 4.46793 9.32083 4.38665 8.8996 4.3885C8.48982 4.3893 8.08434 4.47207 7.70704 4.63195C7.32973 4.79182 6.98823 5.02557 6.70263 5.31942L4.20776 7.87014C3.91673 8.15914 3.68575 8.50287 3.52812 8.88152C3.3705 9.26018 3.28936 9.66627 3.28936 10.0764C3.28936 10.4866 3.3705 10.8927 3.52812 11.2713C3.68575 11.65 3.91673 11.9937 4.20776 12.2827L5.69723 13.6605C5.77022 13.7744 5.80901 13.9068 5.80901 14.0421C5.80901 14.1774 5.77022 14.3099 5.69723 14.4238C5.65531 14.5362 5.58229 14.6344 5.4867 14.707C5.3911 14.7795 5.27686 14.8233 5.1573 14.8334H3.12789C2.29832 14.8334 1.50273 15.163 0.916138 15.7496C0.329545 16.3362 4.8273e-10 17.1318 4.8273e-10 17.9613V21.4802C-1.45506e-05 22.3115 0.328935 23.109 0.914999 23.6986C1.50106 24.2881 2.29662 24.6218 3.12789 24.6267H5.02697C5.28763 24.6267 5.47381 24.8315 5.58552 25.1108C5.65204 25.2134 5.68743 25.333 5.68743 25.4552C5.68743 25.5775 5.65204 25.6971 5.58552 25.7997L4.20776 27.1774C3.61261 27.7763 3.27804 28.586 3.27684 29.4303C3.2762 29.843 3.35825 30.2517 3.51813 30.6322C3.67802 31.0128 3.91251 31.3574 4.20776 31.6458L4.82952 32.254L2.19622 35.0157ZM7.42191 29.5351L13.2496 23.4232C12.9923 23.0492 12.7735 22.6475 12.5981 22.2239C12.1049 21.0332 11.9758 19.7229 12.2273 18.4589C12.4787 17.1948 13.0993 16.0337 14.0107 15.1223C14.922 14.211 16.0831 13.5904 17.3472 13.3389C18.6113 13.0875 19.9215 13.2165 21.1122 13.7097C21.4394 13.8453 21.7535 14.0066 22.0518 14.1915L25.763 10.2994C25.5397 10.3764 25.3098 10.4358 25.0752 10.4766C24.2398 10.622 23.3803 10.5257 22.5978 10.199C21.8153 9.87235 21.1424 9.32887 20.6584 8.6326C20.1744 7.93633 19.8994 7.11626 19.8658 6.26896V4.83534H17.4454V6.26896C17.4375 7.12754 17.175 7.96446 16.6911 8.67374C16.2072 9.38301 15.5237 9.93273 14.7272 10.2533C13.9274 10.6029 13.0416 10.7064 12.1827 10.5505C11.3239 10.3947 10.531 9.98656 9.90499 9.37823L8.8996 8.37284L7.26118 10.0113L8.26657 11.0353C8.83846 11.6614 9.21955 12.4378 9.36497 13.2732C9.51039 14.1086 9.41408 14.9682 9.08738 15.7507C8.76068 16.5332 8.2172 17.2061 7.52094 17.6901C6.82467 18.1741 6.0046 18.4491 5.1573 18.4826H3.72368V20.8286H5.1573C6.01588 20.8365 6.8528 21.099 7.56207 21.5829C8.27135 22.0668 8.82107 22.7503 9.14164 23.5468C9.49124 24.3466 9.59471 25.2324 9.43886 26.0913C9.28301 26.9501 8.8749 27.743 8.26657 28.369L7.26118 29.3744L7.42191 29.5351ZM19.3426 17.0329C19.1085 16.97 18.8652 16.9374 18.6185 16.9374C18.0661 16.9374 17.5262 17.1012 17.0669 17.4081C16.6076 17.7149 16.2497 18.1511 16.0383 18.6614C15.8269 19.1717 15.7716 19.7332 15.8794 20.275C15.9001 20.3791 15.9266 20.4815 15.9588 20.5819L19.3426 17.0329ZM14.6379 37.4323C14.3967 37.1912 14.199 36.9147 14.0498 36.6151L17.3722 33.1414L17.4454 34.6248H19.7914V33.1912C19.7993 32.3326 20.0618 31.4957 20.5457 30.7864C21.0296 30.0771 21.7131 29.5274 22.5097 29.2068C23.3094 28.8572 24.1952 28.7538 25.0541 28.9096C25.9129 29.0655 26.7059 29.4736 27.3318 30.0819L28.3372 31.0873L29.9756 29.4489L28.9702 28.4249C28.3657 27.8084 27.9581 27.0262 27.799 26.1775C27.6398 25.3289 27.7365 24.4522 28.0766 23.6586C28.4 22.8655 28.951 22.1859 29.66 21.7055C30.3691 21.2251 31.2044 20.9653 32.0609 20.9589H33.5131V18.5571H32.0795C31.8445 18.5549 31.6111 18.5337 31.3814 18.494L34.8069 14.9126C35.3993 15.0511 35.9432 15.3596 36.3685 15.8061C36.9267 16.392 37.2377 17.1706 37.2368 17.9799V21.5919C37.2368 22.4215 36.9073 23.2171 36.3207 23.8037C35.7341 24.3903 34.9385 24.7198 34.1089 24.7198H32.0795C31.9599 24.7299 31.8457 24.7737 31.7501 24.8463C31.6545 24.9188 31.5815 25.017 31.5396 25.1294C31.4731 25.232 31.4377 25.3516 31.4377 25.4738C31.4377 25.5961 31.4731 25.7157 31.5396 25.8183L32.9732 27.2519C33.2642 27.5409 33.4952 27.8846 33.6528 28.2633C33.8105 28.6419 33.8916 29.048 33.8916 29.4582C33.8916 29.8683 33.8105 30.2744 33.6528 30.6531C33.4952 31.0317 33.2642 31.3755 32.9732 31.6645L30.5342 34.1407C30.2486 34.4346 29.9071 34.6683 29.5298 34.8282C29.1525 34.9881 28.747 35.0708 28.3372 35.0716C27.5058 35.0607 26.7113 34.7269 26.1216 34.1407L24.688 32.763C24.5854 32.6964 24.4658 32.661 24.3436 32.661C24.2213 32.661 24.1017 32.6964 23.9991 32.763C23.7198 32.8747 23.515 33.0608 23.515 33.3215V35.3509C23.4767 36.1593 23.1284 36.9219 22.5424 37.4802C21.9564 38.0384 21.1779 38.3494 20.3685 38.3485H16.8497C16.0201 38.3485 15.2245 38.0189 14.6379 37.4323Z" fill="#454545"/>
</svg>
